<?xml version="1.0" encoding="UTF-8"?>
<svg id="Layer_1" data-name="Layer 1" xmlns="http://www.w3.org/2000/svg" viewBox="0 0 397.23 397.23">
  <defs>
    <style>
      .cls-1 {
        fill: #f7ede7;
      }

      .cls-2 {
        fill: #fbd5e2;
      }

      .cls-3 {
        fill: #fff;
      }

      .cls-4 {
        fill: #d5d3e2;
      }

      .cls-5 {
        fill: #79452f;
      }

      .cls-6 {
        fill: #fdeff5;
      }
    </style>
  </defs>
  <g>
    <rect class="cls-5" x="2.83" y="2.83" width="391.57" height="391.57" rx="124.97" ry="124.97"/>
    <path class="cls-3" d="M269.43,397.23H127.81C57.33,397.23,0,339.9,0,269.43V127.81C0,57.33,57.33,0,127.81,0h141.62C339.9,0,397.23,57.33,397.23,127.81v141.62c0,70.47-57.33,127.81-127.81,127.81ZM127.81,5.67C60.46,5.67,5.67,60.46,5.67,127.81v141.62c0,67.35,54.79,122.14,122.14,122.14h141.62c67.35,0,122.14-54.79,122.14-122.14V127.81c0-67.35-54.79-122.14-122.14-122.14H127.81Z"/>
  </g>
  <rect class="cls-1" x="17.51" y="17.51" width="362.22" height="362.22" rx="111.56" ry="111.56"/>
  <path class="cls-2" d="M257.5,357.79h-117.77c-65.73,0-119.01-53.87-119.01-120.33v17.63c0,66.46,53.28,120.33,119.01,120.33h117.77c65.73,0,119.01-53.87,119.01-120.33v-17.63c0,66.46-53.28,120.33-119.01,120.33Z"/>
  <g>
    <circle class="cls-3" cx="47.71" cy="122.55" r="7.96"/>
    <circle class="cls-3" cx="154.25" cy="45.96" r="7.96"/>
    <ellipse class="cls-3" cx="96.68" cy="75.27" rx="46.09" ry="26.16" transform="translate(-25.74 70.23) rotate(-35.54)"/>
  </g>
  <g>
    <path class="cls-5" d="M216.43,99.24c4.7,4.74,6.05,16.57,6.55,23.38,2.2,29.81,3.23,99.54-2.1,127.42-2.6,13.6-19.01,15.68-29.55,10.45-13.11-6.51-35.86-32.7-48.12-36.89-9.97-3.4-27.07,5.65-40.95-7.22-12.51-11.59-11.79-61.03-.05-73.51,11.64-12.37,26.85-5.28,41.5-8.68,14.56-6.76,38.7-34.55,52.1-38.61,6.93-2.1,15.33-1.7,20.64,3.65ZM148.07,217.87c16.69,6.43,63.16,64.76,67.19,20.76,3.59-39.26-2.86-83.84-.03-123.7.31-6.04-6.17-14.52-12.26-14l-54.33,40.13-.56,76.81ZM139.93,142.97c-28.05-2.02-36.92.96-38.69,29.84-1.91,31.3,2.79,49.41,38.69,41.6v-71.44Z"/>
    <path class="cls-5" d="M262.93,112.36c22.45-4.02,40.79,46.6,41.16,64.38.39,18.95-11.15,52.5-27.08,63.81-16.08,11.42-33.85-2.8-22.14-20.23,13.57-20.19,21.55-22.17,18.21-51.3-2.15-18.79-19.67-29.02-21.19-36.73-1.63-8.27,1.64-18.26,11.03-19.94ZM262.78,119.99c-13.76,4.51,5.46,20.39,8.75,25.49,13.62,21.14,12.18,48.08-1.46,68.81-3.66,5.56-15.89,12.71-10.34,20.17,7.94,10.67,24.2-12.66,27.9-19.97,11.36-22.48,11.22-50.61-.69-72.83-3.35-6.25-16.54-24.16-24.16-21.66Z"/>
    <path class="cls-5" d="M235.87,139.51c31.97-7.22,43.86,55.94,16.07,75.94-10.18,7.33-23.69,2.57-24.82-10.21-1.02-11.56,15.97-16.18,10.36-33.42-2.06-6.32-23.14-27.44-1.61-32.3ZM236.71,210.26c13.22,8.4,24.45-19.75,24.85-29.73.52-13.03-7.41-31.18-20.35-35.63-15.57,6.4-.08,15.26,3.02,24.05,2.42,6.86,2.92,12.99.33,19.83-1.79,4.72-15.6,16.56-7.84,21.48Z"/>
    <path class="cls-4" d="M148.07,217.87l.56-76.81,54.33-40.13c6.1-.52,12.57,7.96,12.26,14-2.83,39.85,3.62,84.44.03,123.7-4.03,44-50.5-14.32-67.19-20.76Z"/>
    <path class="cls-4" d="M139.93,142.97v71.44c-35.9,7.81-40.59-10.3-38.69-41.6,1.76-28.88,10.64-31.86,38.69-29.84Z"/>
    <path class="cls-6" d="M262.78,119.99c7.62-2.5,20.81,15.41,24.16,21.66,11.91,22.22,12.05,50.36.69,72.83-3.7,7.31-19.95,30.65-27.9,19.97-5.55-7.46,6.68-14.61,10.34-20.17,13.64-20.73,15.08-47.67,1.46-68.81-3.29-5.1-22.5-20.98-8.75-25.49Z"/>
    <path class="cls-6" d="M236.71,210.26c-7.76-4.93,6.05-16.76,7.84-21.48,2.59-6.84,2.09-12.97-.33-19.83-3.1-8.79-18.59-17.65-3.02-24.05,12.95,4.45,20.88,22.6,20.35,35.63-.4,9.98-11.63,38.13-24.85,29.73Z"/>
  </g>
  <g>
    <g>
      <path class="cls-5" d="M140.99,309c-1.41,0-2.78.08-4.19-.08-1.2-.12-2.45-.58-3.36-1.37-.71-.62-1.16-1.54-1.25-2.41-.17-1.16-.21-2.41.21-3.53.17-.54.58-1.04,1.04-1.45.87-.66,1.99-1.08,3.15-1.2,1.66-.21,3.4-.37,5.06-.25,4.11.25,3.69-2.12.66-2.12-2.28.08-4.73-.21-6.64-1.41-1.2-.79-2.24-1.91-2.86-3.11-.75-1.45-1.08-3.11-1.04-4.69.08-2.66.79-5.64,2.91-7.47,4.19-3.53,14.32-3.15,17.93-1.87,2.08.79,2.57,2.53,2.57,4.4,0,1.99-.83,4.27-3.24,4.77-1.12.21-4.23.04-5.31.08-3.53.17-2.78,2.12,0,2.24,1.25.04,3.69.25,4.81.71,5.44,2.24,5.27,9.75,3.07,14.03-.71,1.37-1.95,2.53-3.32,3.36-1.2.75-2.66,1.16-4.11,1.29-2.03.21-4.07.12-6.1.08ZM152.12,280.36c-.25-.54-.75-.95-1.25-1.2-1.41-.75-3.15-.87-4.77-.75-.25,0-1.24.21-1.45.29-.42.21-.75.66-.37.96.33.25,1.62.12,2.08.12.79,0,1.62,0,2.41.17.75.17,1.58.5,2.03,1.12.5.71,1.66.04,1.33-.71Z"/>
      <path class="cls-5" d="M161.71,306.34c-3.82-2.7-5.02-8.05-4.94-12.49.17-7.35,3.24-15.32,11.91-16.64,13.2-1.99,18.43,12.95,14.03,24.61-2.99,7.93-13.86,9.67-21,4.52ZM172.96,297.33c1.78-1.58,2.03-6.81.37-8.63-2.12-2.28-5.15.04-5.4,3.07-.33,3.61,2.16,8.09,5.02,5.56ZM179.35,284.59c-.46-1.25-1.37-2.37-2.41-3.24-1.16-.95-2.61-1.78-4.11-1.99-.5-.08-1-.12-1.49-.04-.25.04-.46.21-.71.33-.37.17-.29.66.12.62.04,0,.33.08.42.08.37.04.75.04,1.12.17,1.87.46,3.69,1.58,4.9,3.07.33.46.66.91.83,1.45.29.71,1.58.25,1.33-.46Z"/>
      <path class="cls-5" d="M197.49,309.37c-1.54-.04-3.15-.42-4.48-1.2-1.7-1-3.28-2.32-4.44-3.94-1.12-1.49-1.91-3.24-2.37-5.06-.83-3.15-1.04-6.43-1.12-9.71-.04-2.53.04-5.19.83-7.64.54-1.66,1.37-3.45,2.82-4.4,1.04-.66,2.32-.79,3.53-.75,2.41.04,5.02,1.62,5.15,3.98.12,1.79-.21,3.53-.46,5.27-.42,2.9-.87,5.98-.25,8.84.42,2.16,2.57,1.79,3.49.29.62-1.08.62-2.49.54-3.74-.25-3.36-1.12-6.68-.79-10.04.12-1.08.37-2.2,1-3.07.42-.62,1.08-1.12,1.79-1.37,1-.37,2.16-.42,3.24-.25,1.29.21,2.62.83,3.49,1.78.66.71,1.04,1.62,1.41,2.53.71,1.78,1,3.78,1.08,5.73.04,2.37-.12,4.73-.25,7.14-.12,2.66-.54,5.35-1.49,7.8-.79,2.12-2.12,4.15-3.86,5.56-1.29,1.04-2.91,1.66-4.52,1.95-1.41.25-2.9.33-4.32.29ZM196.04,282.19c.12-.21-.08-.87-.17-1.12-.62-1.91-2.66-3.44-4.61-2.99-.42.08-.87.42-.58.75.17.12.83.21,1.04.25,1.45.25,2.78,1.74,2.99,3.15.12.66,1,.58,1.33-.04ZM209.57,282.02c.04-.21-.12-.41-.17-.62-.42-1.08-1.33-2.03-2.37-2.61-.83-.5-1.95-.79-2.91-.58-.29.08-.75.29-.75.62.04.46,1.04.37,1.49.5.83.25,1.62.75,2.24,1.41.46.46.91.95,1.16,1.54.25.58,1.25.41,1.29-.25Z"/>
      <path class="cls-5" d="M219.82,309.12c-.91,0-1.87-.08-2.74-.29-1-.25-1.99-.79-2.57-1.66-.54-.83-.83-1.87-1-2.86-.54-2.95-.37-5.98-.21-8.92.12-3.15.33-6.31.75-9.46.25-1.74.5-3.57,1.16-5.23.42-1.08,1.16-2.16,2.16-2.7,1.16-.66,2.53-1.04,3.86-1.16.96-.08,2.03-.08,2.91.33.95.5,1.74,1.37,2.28,2.32,1.04,1.83,1.74,3.86,2.49,5.85.79,2.16,1.62,4.36,2.7,6.39.37-3.65.17-7.3.08-10.96,0-.62,0-1.25.21-1.83.21-.62.83-1.04,1.37-1.25,2.03-.83,4.27-1.16,6.43-.91,1,.12,2.03.58,2.74,1.37.42.42.66.96.83,1.49.37,1.16.46,2.41.54,3.61.37,5.52-.37,11.16-1.41,16.6-.33,1.66-.75,3.4-1.54,4.94-.46.87-1,1.78-1.7,2.41-.79.71-1.78,1.16-2.74,1.37-1.33.25-2.78.33-4.03-.21-.71-.33-1.33-.96-1.78-1.62-.58-.83-1.04-1.78-1.54-2.7-1.25-2.41-2.61-4.73-4.03-6.97-.46-.71-.87-1.33-1.41-1.91-.08-.08-.08,0-.04.08.37,2.95.66,5.85.87,8.8.04.87.12,1.74-.04,2.57-.17.79-.66,1.58-1.33,1.99-.95.58-2.16.54-3.28.5ZM225.05,280.73c-1.24-1.25-3.44-1.58-5.15-1.12-.37.08-1.49.5-1.74.83-.25.29.04.58.41.46.08-.04.62-.08.71-.08,1.33-.21,2.82-.08,3.94.62.17.08.62.54.79.58.87.12,1.66-.71,1.04-1.29ZM241.65,280.77c-.62-1.04-1.91-1.66-3.07-1.83-1-.12-3.24-.04-3.9.71-.37.42.21.71.75.66.75-.08,1.54-.21,2.32-.12.66.04,1.33.25,1.87.66.29.21.5.5.75.75.62.66,1.74-.04,1.29-.83Z"/>
      <path class="cls-5" d="M249.13,310.2c-1.58-.37-3.69-1-3.24-2.57.04-.25.08-.54.08-.79-.58-4.57-.66-9.17-.62-13.74.04-3.57.08-7.14.54-10.67.12-1.25.33-2.57.95-3.69.42-.79,1.2-1.37,2.03-1.7,1.49-.62,3.15-.83,4.73-.87,3.61-.12,7.51,1,10.33,3.24,1.7,1.37,3.24,2.99,4.27,4.86,2.03,3.73,2.86,8.05,2.32,12.29-.33,2.82-1.33,5.6-2.86,7.97-.66,1-1.41,1.95-2.32,2.7-1.49,1.29-3.28,2.24-5.15,2.74-1.74.42-3.53.62-5.31.66-1.91.04-3.9.04-5.77-.42ZM266.19,285.96c0-.46-.75-1.74-1-2.12-.17-.25-.42-.5-.62-.75-.54-.71-1.08-1.41-1.78-1.95-1.74-1.41-3.74-2.74-5.93-3.07-.21-.04-1.29-.08-1.49-.04-.42.04-.66.5-.33.71.25.17,1.41.42,1.7.5,1.29.29,2.53.95,3.57,1.74.58.5,1.29.83,1.78,1.37,1.08,1.08,2.16,2.24,2.74,3.65.08.21.08.42.25.54.42.29,1.12-.04,1.12-.58ZM259.42,296.92c.46-.71.71-1.49.91-2.24.37-1.33.66-2.82.17-4.07-.33-.83-.91-1.62-1.66-2.12-.79-.54-2.08-.66-2.7,0-.46.5-.62,1.29-.71,1.99-.37,2.74-.25,5.56.04,8.3,1.29.29,3.28-.75,3.94-1.87Z"/>
    </g>
    <g>
      <path class="cls-5" d="M177.62,340.82c-2.87-2.02-3.77-6.04-3.71-9.38.12-5.51,2.43-11.49,8.94-12.49,9.9-1.49,13.83,9.72,10.53,18.47-2.24,5.95-10.4,7.26-15.76,3.39ZM186.06,334.06c1.34-1.18,1.53-5.11.28-6.48-1.59-1.71-3.86.03-4.05,2.3-.25,2.71,1.62,6.07,3.77,4.17ZM190.85,324.5c-.34-.93-1.03-1.78-1.81-2.43-.87-.72-1.96-1.34-3.08-1.49-.37-.06-.75-.09-1.12-.03-.19.03-.34.16-.53.25-.28.12-.22.5.09.47.03,0,.25.06.31.06.28.03.56.03.84.12,1.4.34,2.77,1.18,3.67,2.3.25.34.5.68.62,1.09.22.53,1.18.19,1-.34Z"/>
      <path class="cls-5" d="M200.35,343.59c-.75-.03-1.56-.09-2.27-.34-.62-.22-1.18-.69-1.53-1.21-.62-.96-.81-2.18-.9-3.33-.09-1.34-.09-2.71-.09-4.08.06-2.65.06-5.29.31-7.94v-.06c-.03-1.15-.09-2.33-.03-3.49.03-.84.09-1.68.28-2.52.12-.41.34-.87.69-1.15.5-.41,1.15-.56,1.78-.72,1-.25,2.02-.34,3.05-.37,2.18-.06,4.33,0,6.51.06.59.03,1.25.06,1.84.25.53.16,1.03.53,1.31,1,.28.44.34.96.41,1.5.09.87,0,1.74-.12,2.62-.09.69-.37,1.43-.93,1.87-.56.47-1.4.62-2.15.62-1.09.03-2.15-.16-3.24-.28-.19-.03-.62-.09-.75.03-.22.25-.19.96-.12,1.28.03.16.12.59.28.69.53.28,2.68.12,3.27.12.34,0,.69.03,1.03.09.37.09.72.4.87.75.28.65.31,1.37.34,2.06.06.78.06,1.59-.16,2.37-.16.47-.41.93-.81,1.21-.31.25-.68.37-1.09.44-1.03.09-2.09-.06-3.15.03-.06.31-.03.65,0,1,.12,1.25.31,2.49.31,3.77,0,.78-.12,1.65-.56,2.34-.37.59-1.09,1.06-1.81,1.25-.81.19-1.68.22-2.55.19ZM207.6,321.29c.22-.12.53-.22.65-.47.12-.31-.12-.59-.47-.59-2.18-.03-4.36-.31-6.54-.03-.31.03-1.21.31-1.43.53-.25.22-.09.56.22.56.4.03.78-.16,1.15-.12.31.03.62-.03.93,0,1.65,0,3.3.06,4.95.06.16.12.37.16.53.06Z"/>
      <path class="cls-5" d="M217.25,343.59c-.75-.03-1.56-.09-2.27-.34-.62-.22-1.18-.69-1.53-1.21-.62-.96-.81-2.18-.9-3.33-.09-1.34-.09-2.71-.09-4.08.06-2.65.06-5.29.31-7.94v-.06c-.03-1.15-.09-2.33-.03-3.49.03-.84.09-1.68.28-2.52.12-.41.34-.87.69-1.15.5-.41,1.15-.56,1.78-.72,1-.25,2.02-.34,3.05-.37,2.18-.06,4.33,0,6.51.06.59.03,1.25.06,1.84.25.53.16,1.03.53,1.31,1,.28.44.34.96.41,1.5.09.87,0,1.74-.12,2.62-.09.69-.37,1.43-.93,1.87-.56.47-1.4.62-2.15.62-1.09.03-2.15-.16-3.24-.28-.19-.03-.62-.09-.75.03-.22.25-.19.96-.12,1.28.03.16.12.59.28.69.53.28,2.68.12,3.27.12.34,0,.69.03,1.03.09.37.09.72.4.87.75.28.65.31,1.37.34,2.06.06.78.06,1.59-.16,2.37-.16.47-.41.93-.81,1.21-.31.25-.68.37-1.09.44-1.03.09-2.09-.06-3.15.03-.06.31-.03.65,0,1,.12,1.25.31,2.49.31,3.77,0,.78-.12,1.65-.56,2.34-.37.59-1.09,1.06-1.81,1.25-.81.19-1.68.22-2.55.19ZM224.51,321.29c.22-.12.53-.22.65-.47.12-.31-.12-.59-.47-.59-2.18-.03-4.36-.31-6.54-.03-.31.03-1.21.31-1.43.53-.25.22-.09.56.22.56.4.03.78-.16,1.15-.12.31.03.62-.03.93,0,1.65,0,3.3.06,4.95.06.16.12.37.16.53.06Z"/>
    </g>
  </g>
</svg>