<?xml version="1.0" encoding="UTF-8"?>
<svg xmlns="http://www.w3.org/2000/svg" viewBox="0 0 397.23 397.23">
  <defs>
    <style>
      .cls-1 {
        fill: #fcec97;
      }

      .cls-2 {
        stroke: #fff;
        stroke-miterlimit: 10;
        stroke-width: 5.67px;
      }

      .cls-2, .cls-3 {
        fill: #79452f;
      }

      .cls-4 {
        fill: #fed27a;
      }

      .cls-5 {
        isolation: isolate;
      }

      .cls-6 {
        fill: #fff;
      }

      .cls-7 {
        fill: #5a3a1c;
        mix-blend-mode: multiply;
        opacity: .2;
      }
    </style>
  </defs>
  <g class="cls-5">
    <g id="Layer_1" data-name="Layer 1">
      <g>
        <circle class="cls-2" cx="198.62" cy="198.62" r="195.78"/>
        <circle class="cls-1" cx="198.62" cy="198.62" r="183.08"/>
        <path class="cls-4" d="M313,67.89c26,30.55,41.7,70.14,41.7,113.4,0,96.69-78.38,175.07-175.07,175.07-43.26,0-82.85-15.7-113.4-41.7,32.11,37.73,79.94,61.68,133.38,61.68,96.69,0,175.07-78.38,175.07-175.07,0-53.43-23.94-101.26-61.68-133.38Z"/>
        <circle class="cls-6" cx="74.18" cy="118.78" r="7.96"/>
        <circle class="cls-6" cx="180.72" cy="42.19" r="7.96"/>
        <ellipse class="cls-6" cx="123.15" cy="71.5" rx="46.09" ry="26.16" transform="translate(-18.62 84.91) rotate(-35.54)"/>
        <g>
          <path class="cls-3" d="M192.11,278.6c.16-.56.12-.48-.08,0-.2.48.47-.45.1-.12-.38.35.73-.38,0-.06.3-.13.64-.21.96-.28-.83.17.21.03.44.05.62.06-.32-.22.72.19.63.25,1.03.42,1.8.89,1.69,1.04,3.06,2.41,5,3.02,2.31.74,4.86.29,6.89-1,.85-.54,1.64-1.24,2.4-1.9.25-.22.5-.46.76-.67.43-.36-.51.21.29-.16.27-.13.53-.3.8-.43-.85.4.06,0,.28-.05.37-.08.73-.19,1.1-.26-.5.09-.46.02.02.03.38,0,.76,0,1.14,0,.27,0,1.19.23.25.01.3.07.59.13.89.21.12.03,1.26.44.68.2-.5-.2.34.18.42.23.33.19.65.38.96.6-.92-.66,1.1,1.31.43.42,1.62,2.18,4.36,3.29,6.89,1.81,2.15-1.26,3.44-4.7,1.81-6.89-2.9-3.9-6.81-6.12-11.65-6.61-4.55-.46-8.64,1.31-12,4.26-.12.1-1.16,1.07-.56.5-.52.49-.26.12.51.09,1-.04.89.13.16-.4-.39-.28-.75-.58-1.14-.86-2.37-1.71-5.06-2.89-7.97-3.21-5.27-.59-10.55,2.48-12.01,7.7-1.75,6.25,7.97,8.92,9.71,2.68h0Z"/>
          <g>
            <path class="cls-6" d="M159.54,213.67c0,30.21-18.02,53.04-44.34,53.04s-47.66-24.49-47.66-54.7,25.07-61.33,51.38-61.33,40.61,32.78,40.61,62.99Z"/>
            <path class="cls-3" d="M116.35,171.24c-18.1.4-32.34,20.28-31.81,44.39.53,24.12,15.64,43.34,33.74,42.94,18.1-.4,32.34-20.28,31.81-44.39-.53-24.12-15.64-43.34-33.74-42.94ZM100.57,207.13c-8.82,1.14-10.57-12.55-1.76-13.68,8.82-1.14,10.57,12.55,1.76,13.68Z"/>
            <path class="cls-3" d="M161.13,169.7c-8.93-15.79-24.93-26.18-43.27-26.3-18.1-.11-34.88,9.42-45.7,23.59-6.74,8.83-10.97,19.4-12.71,30.35-.71,4.47,1.15,9.03,5.86,10.33,3.99,1.1,9.61-1.36,10.33-5.86,1.58-10.01,5.37-19.77,11.45-26.76,5.81-6.69,12.53-11.11,20.18-13.34,7.76-2.26,14.13-2.19,22.1.62,1.77.62,7.23,3.87,8.99,5.42,3.85,3.4,5.78,6,8.28,10.42,5.32,9.4,19.83.95,14.5-8.47h0Z"/>
            <path class="cls-7" d="M86.8,218.63c3.79-5.43,6.39-11.64,10.37-16.94,8.6-11.45,23.73-17.6,37.88-15.41,3.5.54,7.35,1.48,10.36-.38,2.75-1.7,3.78-5.25,3.73-8.48-.11-8.69-6.42-16.4-14.11-20.45-14.16-7.46-32.49-3.96-44.93,6.11-10.48,8.49-20.11,24.12-22.57,37.55-2.1,11.5,7.23,35.26,19.27,18Z"/>
            <path class="cls-3" d="M151.46,95.77c-19.12,8.19-39.41,13.71-59.95,16.86-4.48.69-6.96,6.32-5.86,10.33,1.32,4.79,5.83,6.55,10.33,5.86,22.1-3.39,43.42-9.75,63.96-18.55,4.17-1.78,5.1-7.92,3.01-11.48-2.52-4.31-7.3-4.8-11.48-3.01h0Z"/>
          </g>
          <g>
            <path class="cls-6" d="M237.69,213.67c0,30.21,18.02,53.04,44.34,53.04s47.65-24.49,47.65-54.7-25.07-61.33-51.38-61.33-40.61,32.78-40.61,62.99Z"/>
            <path class="cls-3" d="M247.14,214.18c-.53,24.12,13.71,43.99,31.81,44.39,18.1.4,33.21-18.83,33.74-42.94.53-24.12-13.71-43.99-31.81-44.39-18.1-.4-33.21,18.83-33.74,42.94ZM298.42,193.45c8.8,1.13,7.05,14.82-1.76,13.68-8.8-1.13-7.05-14.82,1.76-13.68Z"/>
            <path class="cls-3" d="M250.59,178.18c2.5-4.42,4.43-7.02,8.28-10.42,1.76-1.56,7.22-4.8,8.99-5.42,7.97-2.81,14.34-2.88,22.1-.62,7.65,2.23,14.37,6.65,20.18,13.34,6.08,6.99,9.87,16.75,11.45,26.76.71,4.48,6.31,6.97,10.33,5.86,4.77-1.31,6.57-5.83,5.86-10.33-3-18.96-13.8-36.63-30.6-46.36-15.13-8.76-33.68-10.11-49.51-2.42-9.21,4.48-16.58,12.3-21.58,21.14-5.33,9.42,9.17,17.89,14.5,8.47h0Z"/>
            <path class="cls-7" d="M310.43,218.63c-3.79-5.43-6.39-11.64-10.37-16.94-8.6-11.45-23.73-17.6-37.88-15.41-3.5.54-7.35,1.48-10.36-.38-2.75-1.7-3.78-5.25-3.73-8.48.11-8.69,6.42-16.4,14.11-20.45,14.16-7.46,32.49-3.96,44.93,6.11,10.48,8.49,20.11,24.12,22.57,37.55,2.1,11.5-7.23,35.26-19.27,18Z"/>
            <path class="cls-3" d="M237.29,110.27c20.54,8.79,41.86,15.16,63.96,18.55,4.48.69,9.03-1.13,10.33-5.86,1.09-3.97-1.35-9.63-5.86-10.33-20.54-3.15-40.83-8.67-59.95-16.86-4.16-1.78-9-1.24-11.48,3.01-2.07,3.53-1.18,9.69,3.01,11.48h0Z"/>
          </g>
        </g>
      </g>
    </g>
  </g>
</svg>