<?xml version="1.0" encoding="UTF-8"?>
<svg xmlns="http://www.w3.org/2000/svg" viewBox="0 0 810.92 1428.89">
  <defs>
    <style>
      .cls-1 {
        fill: #d4a885;
      }

      .cls-2 {
        isolation: isolate;
      }

      .cls-3 {
        fill: #e5f3fb;
      }

      .cls-4 {
        mix-blend-mode: multiply;
      }

      .cls-5 {
        fill: #6f3932;
      }

      .cls-6 {
        fill: #abe1fa;
      }

      .cls-7 {
        fill: #fff;
      }

      .cls-8 {
        opacity: .7;
      }

      .cls-9 {
        opacity: .3;
      }

      .cls-10 {
        fill: #faed85;
      }

      .cls-11 {
        fill: #f4f8fc;
      }

      .cls-12 {
        fill: #a0cdea;
      }

      .cls-13 {
        fill: #fded95;
      }

      .cls-14 {
        fill: #fdfbfc;
      }

      .cls-15 {
        fill: #b291e3;
      }

      .cls-16 {
        fill: #b0f5d9;
      }
    </style>
  </defs>
  <g class="cls-2">
    <g id="Layer_1" data-name="Layer 1">
      <g>
        <g class="cls-9">
          <path class="cls-7" d="M156.37,1221.37h520.51c29.79,0,53.94-24.15,53.94-53.94v-313.41c-9.86-10.57-22.67-16.97-36.68-16.97-25.62,0-47.24,21.36-54.1,50.6-5.74-2.46-11.9-3.82-18.31-3.82-18.99,0-35.78,11.75-46,29.73-6.99-3.88-14.73-6.06-22.87-6.06-4.45,0-8.78.67-12.93,1.88-10.34-15.61-25.97-25.56-43.45-25.56-23.44,0-43.53,17.87-52.04,43.29-6.95-4.34-14.78-6.8-23.08-6.8-15.23,0-28.92,8.24-38.38,21.34-9.3-17.06-24.97-28.27-42.73-28.27-9.08,0-17.61,2.94-25.02,8.07-10.55-34.26-37.14-58.58-68.28-58.58-13.01,0-25.22,4.25-35.8,11.68-13.3-22.74-34.81-37.52-59.09-37.52-19.16,0-36.6,9.21-49.64,24.27v306.11c0,29.79,24.15,53.94,53.94,53.94Z"/>
        </g>
        <g>
          <g>
            <path class="cls-7" d="M675.67,130.09H157.57c-36.92,0-66.95,30.03-66.95,66.95v1022.1c0,36.92,30.03,66.95,66.95,66.95h518.1c36.92,0,66.95-30.03,66.95-66.95V197.04c0-36.92-30.03-66.95-66.95-66.95ZM740.62,1219.14c0,35.87-29.08,64.95-64.95,64.95H157.57c-35.87,0-64.95-29.08-64.95-64.95V197.03c0-35.87,29.08-64.95,64.95-64.95h518.1c35.87,0,64.95,29.08,64.95,64.95v1022.1Z"/>
            <path class="cls-7" d="M675.67,1287.5H157.57c-37.7,0-68.37-30.67-68.37-68.37V197.04c0-37.7,30.67-68.37,68.37-68.37h518.1c37.7,0,68.37,30.67,68.37,68.37v1022.1c0,37.7-30.67,68.37-68.37,68.37ZM157.57,133.5c-35.03,0-63.53,28.5-63.53,63.53v1022.1c0,35.03,28.5,63.53,63.53,63.53h518.1c35.03,0,63.53-28.5,63.53-63.53V197.03c0-35.03-28.5-63.53-63.53-63.53H157.57Z"/>
          </g>
          <path class="cls-5" d="M675.67,132.09H157.57c-35.87,0-64.95,29.08-64.95,64.95v1022.1c0,35.87,29.08,64.95,64.95,64.95h518.1c35.87,0,64.95-29.08,64.95-64.95V197.03c0-35.87-29.08-64.95-64.95-64.95ZM730.82,1219.19c0,29.79-24.15,53.94-53.94,53.94H156.37c-29.79,0-53.94-24.15-53.94-53.94V196.98c0-29.79,24.15-53.94,53.94-53.94h520.51c29.79,0,53.94,24.15,53.94,53.94v1022.21Z"/>
        </g>
        <g>
          <path class="cls-6" d="M752.75,1077c-17.05,0-33.22,6.8-46.76,19.67-11.28,10.72-20.08,25.32-25.24,41.71-6.08-1.89-12.31-2.84-18.6-2.84-23.2,0-45.17,13.12-59.81,35.41-8.45-3.84-17.29-5.78-26.37-5.78-4.56,0-9.15.51-13.68,1.53-14.64-19.86-35.14-31.16-56.88-31.16-28.96,0-55.12,19.98-68.43,51.56-8.14-3.92-16.71-5.9-25.57-5.9-17.49,0-34.34,8.07-47.33,22.41-13.5-19.62-33.22-31.07-54.17-31.07-9.59,0-19.1,2.43-27.88,7.07-7.3-19.29-18.47-35.81-32.61-48.17-16.55-14.46-36.01-22.1-56.27-22.1-14.89,0-29.61,4.24-42.92,12.31-18.6-28.08-46.52-44.64-75.81-44.64s-56.33,16.52-74.37,42.59v160.5c18.04,26.07,44.69,42.59,74.37,42.59,14.89,0,29.61-4.24,42.92-12.31,18.6,28.08,46.51,44.64,75.81,44.64,24.44,0,47.41-11,65.43-31.15,13.42,17.39,31.75,27.2,51.33,27.2,17.49,0,34.34-8.07,47.33-22.41,13.5,19.62,33.22,31.08,54.17,31.08,24.46,0,46.86-15.41,59.96-40.75,10.54,6.46,22.18,9.84,34.03,9.84,4.56,0,9.15-.51,13.68-1.53,14.64,19.86,35.14,31.16,56.88,31.16,23.2,0,45.17-13.12,59.81-35.41,8.44,3.84,17.29,5.78,26.37,5.78,17.05,0,33.22-6.8,46.76-19.67,11.28-10.72,20.08-25.32,25.24-41.71,6.08,1.88,12.31,2.84,18.61,2.84,23.16,0,43.98-12.79,58.17-33.02v-127.23c-14.19-20.22-35-33.02-58.17-33.02Z"/>
          <path class="cls-11" d="M752.75,1085.48c-32.06,0-59.11,26.73-67.7,63.32-7.19-3.08-14.89-4.78-22.91-4.78-23.77,0-44.77,14.7-57.56,37.2-8.75-4.86-18.43-7.58-28.62-7.58-5.57,0-10.98.83-16.18,2.36-12.94-19.53-32.49-31.98-54.37-31.98-29.33,0-54.47,22.36-65.12,54.17-8.69-5.43-18.5-8.51-28.88-8.51-19.06,0-36.19,10.31-48.02,26.71-11.64-21.35-31.24-35.37-53.47-35.37-11.36,0-22.03,3.67-31.31,10.1-13.2-42.87-46.48-73.3-85.44-73.3-16.27,0-31.55,5.31-44.79,14.62-16.65-28.46-43.56-46.95-73.94-46.95s-57.76,18.81-74.37,47.7v270.52h810.85v-279.95c-12.72-23.11-34.02-38.27-58.17-38.27Z"/>
          <path class="cls-3" d="M758.87,1167.93c-32.06,0-59.11,26.73-67.7,63.32-7.19-3.08-14.89-4.78-22.91-4.78-23.77,0-44.77,14.7-57.56,37.2-8.75-4.86-18.43-7.58-28.62-7.58-5.57,0-10.98.83-16.18,2.36-12.94-19.53-32.49-31.98-54.37-31.98-29.33,0-54.47,22.36-65.12,54.17-8.69-5.43-18.5-8.51-28.88-8.51-18.43,0-35.06,9.64-46.84,25.11h-2.08c-11.73-20.45-30.9-33.77-52.57-33.77-11.36,0-22.03,3.67-31.31,10.1-13.2-42.87-46.48-73.3-85.44-73.3-16.27,0-31.55,5.31-44.79,14.62-16.65-28.46-43.56-46.95-73.94-46.95-34.76,0-64.99,24.21-80.49,59.86v201.09h810.85v-232.3c-12.9-17.61-31.44-28.65-52.05-28.65Z"/>
        </g>
        <g class="cls-8">
          <path class="cls-7" d="M68.34,325.64c.28.05.64.05.97.01l-1.84-.12c-19.4-3.03-19.21-25.39-19.21-25.39,0,0-.26,22.82-20.38,21.91l-1.12-.11c.22.05.46.06.57.11-.24-.01-.35-.06-.54-.07l1.21.12c19.99,2.61,19.69,25.5,19.69,25.5,0,0,.53-22.45,19.82-22.02l1.71.14c-.25-.03-.59-.03-.87-.08Z"/>
        </g>
        <g class="cls-8">
          <path class="cls-7" d="M808.78,616.08c.37.06.84.06,1.28.02l-2.43-.16c-25.6-4-25.35-33.5-25.35-33.5,0,0-.35,30.11-26.89,28.9l-1.48-.15c.29.06.6.08.76.14-.31-.02-.47-.08-.72-.09l1.59.15c26.37,3.45,25.97,33.65,25.97,33.65,0,0,.7-29.62,26.16-29.06l2.25.19c-.33-.03-.78-.05-1.15-.11Z"/>
        </g>
        <g class="cls-8">
          <path class="cls-7" d="M56.25,785.32c.25.04.56.04.86.01l-1.62-.11c-17.08-2.67-16.92-22.35-16.92-22.35,0,0-.23,20.09-17.95,19.29l-.99-.1c.19.04.4.05.5.1-.21-.01-.31-.06-.48-.06l1.06.1c17.6,2.3,17.33,22.45,17.33,22.45,0,0,.47-19.76,17.45-19.39l1.5.13c-.22-.02-.52-.03-.77-.07Z"/>
        </g>
        <g class="cls-8">
          <path class="cls-7" d="M279.63,426.37c.25.04.56.04.86.01l-1.62-.11c-17.08-2.67-16.92-22.35-16.92-22.35,0,0-.23,20.09-17.95,19.29l-.99-.1c.19.04.4.05.5.1-.21-.01-.31-.06-.48-.06l1.06.1c17.6,2.3,17.33,22.45,17.33,22.45,0,0,.47-19.76,17.45-19.39l1.5.13c-.22-.02-.52-.03-.77-.07Z"/>
        </g>
        <g class="cls-8">
          <circle class="cls-7" cx="425.61" cy="687.72" r="3"/>
        </g>
        <g class="cls-8">
          <circle class="cls-7" cx="420.93" cy="491.1" r="6.29"/>
        </g>
        <g class="cls-8">
          <circle class="cls-7" cx="62.64" cy="592.33" r="11.98"/>
        </g>
        <g class="cls-8">
          <circle class="cls-7" cx="428.6" cy="238.69" r="11.98"/>
        </g>
        <g class="cls-8">
          <circle class="cls-7" cx="563.1" cy="424.81" r="13.94"/>
        </g>
        <g class="cls-8">
          <circle class="cls-7" cx="788.53" cy="368.73" r="5.69"/>
        </g>
        <g class="cls-8">
          <circle class="cls-7" cx="19.64" cy="523.43" r="5.69"/>
        </g>
        <g class="cls-8">
          <circle class="cls-7" cx="271.96" cy="724.44" r="5.69"/>
        </g>
        <g class="cls-8">
          <circle class="cls-7" cx="769.62" cy="828.73" r="5.69"/>
        </g>
        <g class="cls-8">
          <circle class="cls-7" cx="570.32" cy="816.06" r="5.69"/>
        </g>
        <g>
          <g>
            <path class="cls-11" d="M.06,111.93c1.58.55,2.39,1.26,3.89,1.92,10.72-10.47,25.94-17.01,42.85-17.01,2.17,0,4.31.12,6.42.33,8.59-35.73,37.07-61.98,70.91-61.98,40.63,0,73.57,37.85,73.57,84.52,0,1.23-.04,2.43-.08,3.64h.08c32.44,0,58.74,19.57,58.74,43.72s-26.3,43.72-58.74,43.72c-4.61,0-9.07-.41-13.37-1.15.33,2.07.52,4.18.52,6.32,0,29.54-32.77,53.49-73.18,53.49-25.86,0-48.57-9.82-61.58-24.62-10.39,6.32-23.96,9.47-38.42,7.95-4.05-.42-7.96-1.19-11.68-2.26L.06,111.93Z"/>
            <path class="cls-12" d="M111.68,274.7c43.28,0,78.49-26.36,78.49-58.77v-.23c2.51.23,5.03.34,7.54.34,35.31,0,64.05-21.98,64.05-49s-25.91-46.77-58.75-48.83c-.69-48.84-35.81-88.32-78.87-88.32-34.11,0-64.36,25.15-74.92,61.7-.81-.03-1.62-.04-2.41-.04-16.56,0-32.04,5.7-43.97,16.13-.91-.35-1.84-.68-2.77-.99v149.29c3.58.95,7.28,1.63,11.06,2.02,13.5,1.42,26.87-.92,37.94-6.58,14.78,14.64,37.82,23.27,62.61,23.27ZM184.34,204.34c-1.38,0-2.72.54-3.72,1.51-1.22,1.2-1.79,2.91-1.52,4.59.31,1.95.46,3.75.46,5.5,0,26.59-30.45,48.21-67.88,48.21-23.51,0-45.04-8.53-57.59-22.82-1.7-1.93-4.55-2.37-6.76-1.03-9.81,5.97-22.33,8.54-35.09,7.21-4.2-.44-8.28-1.29-12.17-2.51v-127.06c.59.24,1.17.48,1.75.74,1.98.87,4.31.45,5.85-1.06,10.09-9.85,24.36-15.5,39.14-15.5,1.91,0,3.9.1,5.9.3,2.64.23,5.07-1.46,5.69-4.02,8.2-34.11,35.23-57.93,65.75-57.93,37.64,0,68.27,35.55,68.27,79.24,0,1.16-.04,2.31-.08,3.46-.05,1.43.49,2.82,1.49,3.85,1,1.03,2.38,1.61,3.81,1.61,29.55,0,53.52,17.24,53.52,38.44s-23.97,38.44-53.44,38.44c-4.17,0-8.36-.36-12.46-1.07-.31-.05-.61-.08-.92-.08Z"/>
          </g>
          <g class="cls-4">
            <path class="cls-3" d="M.06,219.84c7.2,5.92,14.06,12.46,24.38,11.14,11.01-1.41,18.84-9.4,29.09-12.75,6.11-1.99,13.24-2.36,18.83,1.31,3.98,2.62,6.93,6.25,10.29,9.54,12.57,12.27,33.47,16.31,50.43,12.76,7.87-1.65,15.97-5.09,21.14-11.5,5.86-7.28,6.94-15.56,6.98-24.63.02-5.9-.24-13.47,4.64-17.77,6.57-5.8,14.32-4.72,22.13-2.63,10.64,2.85,20.95,2.28,30.07-4.4,6.22-4.55,10.91-13.09,8.03-20.81-3.08-8.26-11.03-13.52-19.03-16.51-13.09-4.9-38.59-5.82-37.19-25.11.39-5.38,2.57-10.37,2.96-15.73.3-4.2.02-8.48-1.19-12.54-2.51-8.46-7.7-16.05-14.6-21.61-13.57-10.94-33.66-16.21-49.76-7.4-17.27,9.44-20.24,30.28-34.5,42.49-9.08,7.77-19.98,2.06-25.82-6.85,2.12,0,4.21.12,6.28.33,8.59-35.73,37.07-61.98,70.91-61.98,40.63,0,73.57,37.85,73.57,84.52,0,1.23-.04,2.43-.08,3.64h.08c32.44,0,58.74,19.57,58.74,43.72s-26.3,43.72-58.74,43.72c-4.61,0-9.07-.41-13.37-1.15.33,2.07.52,4.18.52,6.32,0,29.54-32.77,53.49-73.18,53.49-25.86,0-48.57-9.82-61.58-24.62-10.39,6.32-23.96,9.47-38.42,7.95-4.03-.42-7.91-1.18-11.62-2.24v-30.68Z"/>
          </g>
        </g>
        <g>
          <g>
            <path class="cls-11" d="M810.85,111.93c-1.58.55-2.39,1.26-3.89,1.92-10.72-10.47-25.94-17.01-42.85-17.01-2.17,0-4.31.12-6.42.33-8.59-35.73-37.07-61.98-70.91-61.98-40.63,0-73.57,37.85-73.57,84.52,0,1.23.04,2.43.08,3.64h-.08c-32.44,0-58.74,19.57-58.74,43.72s26.3,43.72,58.74,43.72c4.61,0,9.07-.41,13.37-1.15-.33,2.07-.52,4.18-.52,6.32,0,29.54,32.77,53.49,73.18,53.49,25.86,0,48.57-9.82,61.58-24.62,10.39,6.32,23.96,9.47,38.42,7.95,4.05-.42,7.96-1.19,11.68-2.26l-.06-138.57Z"/>
            <path class="cls-12" d="M699.24,274.7c-43.28,0-78.49-26.36-78.49-58.77v-.23c-2.51.23-5.03.34-7.54.34-35.31,0-64.05-21.98-64.05-49s25.91-46.77,58.75-48.83c.69-48.84,35.81-88.32,78.87-88.32,34.11,0,64.36,25.15,74.92,61.7.81-.03,1.62-.04,2.41-.04,16.56,0,32.04,5.7,43.97,16.13.91-.35,1.84-.68,2.77-.99v149.29c-3.58.95-7.28,1.63-11.06,2.02-13.5,1.42-26.87-.92-37.94-6.58-14.78,14.64-37.82,23.27-62.61,23.27ZM626.58,204.34c1.38,0,2.72.54,3.72,1.51,1.22,1.2,1.79,2.91,1.52,4.59-.31,1.95-.46,3.75-.46,5.5,0,26.59,30.45,48.21,67.88,48.21,23.51,0,45.04-8.53,57.59-22.82,1.7-1.93,4.55-2.37,6.76-1.03,9.81,5.97,22.33,8.54,35.09,7.21,4.2-.44,8.28-1.29,12.17-2.51v-127.06c-.59.24-1.17.48-1.75.74-1.98.87-4.31.45-5.85-1.06-10.09-9.85-24.36-15.5-39.14-15.5-1.91,0-3.9.1-5.9.3-2.64.23-5.07-1.46-5.69-4.02-8.2-34.11-35.23-57.93-65.75-57.93-37.64,0-68.27,35.55-68.27,79.24,0,1.16.04,2.31.08,3.46.05,1.43-.49,2.82-1.49,3.85-1,1.03-2.38,1.61-3.81,1.61-29.55,0-53.52,17.24-53.52,38.44s23.97,38.44,53.44,38.44c4.17,0,8.36-.36,12.46-1.07.31-.05.61-.08.92-.08Z"/>
          </g>
          <g class="cls-4">
            <path class="cls-3" d="M810.85,219.84c-7.2,5.92-14.06,12.46-24.38,11.14-11.01-1.41-18.84-9.4-29.09-12.75-6.11-1.99-13.24-2.36-18.83,1.31-3.98,2.62-6.93,6.25-10.29,9.54-12.57,12.27-33.47,16.31-50.43,12.76-7.87-1.65-15.97-5.09-21.14-11.5-5.86-7.28-6.94-15.56-6.98-24.63-.02-5.9.24-13.47-4.64-17.77-6.57-5.8-14.32-4.72-22.13-2.63-10.64,2.85-20.95,2.28-30.07-4.4-6.22-4.55-10.91-13.09-8.03-20.81,3.08-8.26,11.03-13.52,19.03-16.51,13.09-4.9,38.59-5.82,37.19-25.11-.39-5.38-2.57-10.37-2.96-15.73-.3-4.2-.02-8.48,1.19-12.54,2.51-8.46,7.7-16.05,14.6-21.61,13.57-10.94,33.66-16.21,49.76-7.4,17.27,9.44,20.24,30.28,34.5,42.49,9.08,7.77,19.98,2.06,25.82-6.85-2.12,0-4.21.12-6.28.33-8.59-35.73-37.07-61.98-70.91-61.98-40.63,0-73.57,37.85-73.57,84.52,0,1.23.04,2.43.08,3.64h-.08c-32.44,0-58.74,19.57-58.74,43.72s26.3,43.72,58.74,43.72c4.61,0,9.07-.41,13.37-1.15-.33,2.07-.52,4.18-.52,6.32,0,29.54,32.77,53.49,73.18,53.49,25.86,0,48.57-9.82,61.58-24.62,10.39,6.32,23.96,9.47,38.42,7.95,4.03-.42,7.91-1.18,11.62-2.24v-30.68Z"/>
          </g>
        </g>
        <g>
          <path class="cls-10" d="M728.13,76.04c-.76,0-1.39-.6-1.42-1.36-.02-.54-.65-12.65-11.49-13.56,0,0-.74-.02-.78-.02-.77-.06-1.34-.72-1.3-1.49.02-.45.25-.83.59-1.08.21-.17.47-.27.76-.29.04,0,.13,0,.17,0,.07,0,.7.02.7.02,2.89-.02,5.24-.92,6.95-2.69,3.49-3.62,3.33-9.73,3.33-9.79-.02-.78.58-1.43,1.36-1.46.02,0,.04,0,.05,0,.75,0,1.38.59,1.42,1.35.02.51.7,12.42,11.12,13.55l1.09.03c.77.02,1.38.66,1.37,1.44,0,.48-.25.9-.62,1.15-.24.18-.54.29-.86.29-.03,0-1.05-.06-1.05-.06-10.16.34-9.98,12.02-9.97,12.52.02.78-.59,1.43-1.37,1.45-.01,0-.03,0-.04,0Z"/>
          <path class="cls-1" d="M727.04,45.73s.59,13.67,12.44,14.9l.73.02h0c-.06,0-.11,0-.17,0,.17,0,.35.03.52.05l-1.03-.06c-11.79.35-11.4,13.97-11.4,13.97,0,0-.52-13.89-12.79-14.91l-.67-.02c.09,0,.19-.01.29-.01-.06,0-.13-.01-.19-.02h.55c12.22-.05,11.73-13.94,11.73-13.94M714.65,59.66s.08,0,.11,0h-.17s.04,0,.06,0M714.55,59.69h.12s-.02,0-.03,0c-.03,0-.06,0-.1,0M740.21,60.66c.06,0,.11,0,.17,0h-.17M740.38,60.66h.24s0,0,0,0c-.08,0-.16,0-.24,0M728.13,74.63h0M727.04,42.9s-.08,0-.12,0c-1.55.07-2.76,1.37-2.71,2.92,0,.09.11,5.62-2.94,8.78-1.44,1.49-3.38,2.23-5.93,2.25h-.42c-.09-.02-.17-.02-.26-.02s-.19,0-.29.01c-.55.04-1.05.24-1.46.55-.68.49-1.14,1.27-1.19,2.16-.08,1.54,1.08,2.85,2.62,2.97.1,0,.21.01.31.01h.53c3.96.37,6.75,2.35,8.52,6.07,1.45,3.05,1.6,6.11,1.6,6.14.07,1.52,1.32,2.71,2.83,2.71.03,0,.07,0,.1,0,1.56-.06,2.78-1.35,2.73-2.91-.02-1.09.01-10.72,8.53-11.05l.9.05c.06,0,.11,0,.17,0,.67,0,1.29-.24,1.79-.63.66-.51,1.09-1.3,1.11-2.2.02-1.55-1.19-2.83-2.74-2.88h-.22c-.07-.01-.15-.01-.22-.01l-.59-.02c-9.14-1.03-9.78-11.75-9.81-12.21-.08-1.51-1.33-2.7-2.83-2.7h0Z"/>
        </g>
        <g>
          <path class="cls-10" d="M75.16,173.64c-.76,0-1.39-.6-1.42-1.36-.02-.54-.65-12.65-11.49-13.55,0,0-.74-.02-.78-.02-.77-.06-1.35-.72-1.3-1.49.02-.46.26-.86.62-1.1.2-.15.45-.25.72-.27.04,0,.14,0,.18,0,.07,0,.69.02.69.02,2.89-.02,5.24-.92,6.95-2.69,3.49-3.62,3.33-9.73,3.33-9.79-.02-.78.58-1.43,1.36-1.46.02,0,.04,0,.05,0,.75,0,1.38.59,1.42,1.35.02.51.7,12.42,11.12,13.55l1.09.03c.77.02,1.38.66,1.37,1.44,0,.48-.25.9-.62,1.15-.24.18-.54.29-.86.29-.03,0-1.05-.06-1.05-.06-10.16.34-9.98,12.02-9.96,12.52.02.78-.59,1.43-1.37,1.45-.02,0-.03,0-.05,0Z"/>
          <path class="cls-1" d="M74.07,143.32s.59,13.67,12.44,14.9l.74.02h-.01c-.06,0-.11,0-.17,0,.17,0,.35.03.52.05l-1.03-.06c-11.79.35-11.4,13.97-11.4,13.97,0,0-.52-13.89-12.79-14.91l-.67-.02c.09,0,.19-.01.29-.01-.06,0-.13-.01-.19-.02h.55c12.22-.05,11.73-13.94,11.73-13.94M61.68,157.25s.08,0,.11,0h-.17s.04,0,.06,0M61.58,157.29h.12s-.02,0-.03,0c-.03,0-.06,0-.1,0M87.25,158.25c.05,0,.11,0,.16,0h-.16M87.41,158.25h.25s0,0,0,0c-.08,0-.16,0-.24,0M75.16,172.22h0M74.07,140.49s-.08,0-.12,0c-1.55.07-2.76,1.37-2.71,2.92,0,.09.11,5.62-2.94,8.78-1.44,1.49-3.38,2.23-5.93,2.25h-.42c-.09-.02-.17-.02-.26-.02s-.19,0-.29.01c-.55.04-1.05.24-1.46.55-.68.49-1.14,1.27-1.19,2.16-.08,1.54,1.08,2.85,2.62,2.97.1,0,.21.01.31.01h.53c3.96.37,6.75,2.35,8.52,6.07,1.45,3.05,1.6,6.11,1.6,6.14.07,1.52,1.32,2.71,2.83,2.71.03,0,.07,0,.1,0,1.56-.06,2.78-1.35,2.73-2.91-.02-1.09.01-10.72,8.53-11.05l.9.05c.06,0,.11,0,.17,0,.68,0,1.31-.24,1.81-.65.65-.51,1.07-1.3,1.08-2.18.02-1.55-1.19-2.83-2.74-2.88h-.23c-.07-.01-.14-.01-.21-.01l-.6-.02c-9.14-1.03-9.78-11.75-9.81-12.21-.08-1.51-1.33-2.7-2.83-2.7h0Z"/>
        </g>
        <g>
          <g>
            <g>
              <path class="cls-15" d="M157.54,198.04c-5.17.96-9.39,1.09-13.31.37-.18-.03-.35-.07-.52-.11-7.04-1.64-9.28-3.31-10.01-3.86-5.59-4.23-7.51-10.27-8.77-14.26,0,0-.34-1.07-.36-1.15-1.88-6.35-3.32-13.36-4.47-22.01-.68-2.81-1.33-5.78-1.9-8.77-.98-5.2-2.36-12.22-2.7-19.5-.15-3.23-.11-7.52,1.39-12.06.99-2.98,2.84-5.91,5.51-8.63.1-.1.19-.19.3-.29,3.61-3.42,8.3-6.11,14.7-8.47,4.24-1.56,8.85-2.79,14.02-3.71,1.32-.24,2.71-.45,4.1-.65,3.98-.57,9.3-1.21,14.78-.72,5.23.47,9.61,1.44,13.38,2.92.14.05.28.11.41.17,2.85,1.26,5.57,3.08,7.85,5.16,4.98,4.53,8.38,10.12,9.38,15.73.91,5.15-.11,10.64-2.71,15.49,4.93,4.33,8.35,10.2,9.74,16.43.79,3.52.76,7.44.09,11.13-1.16,6.39-4.81,13.08-11.38,20.03-.03.03-.05.06-.08.08-3.96,4.1-8.68,6.84-13.56,9.55-.1.06-.21.11-.31.17-3.01,1.55-6.46,2.69-10.03,3.53-3.94.93-7.98,1.79-11.76,2.63-1.41.31-2.62.58-3.76.8Z"/>
              <path class="cls-15" d="M236.89,183.45c-.66.09-1.33.16-1.98.23-4.05.42-10.23.39-16.45-2.13-5.99-2.42-11.45-5.97-15.67-10.11-4.1-4.02-7.49-8.91-9.93-14.43-3.66-8.3-5.64-16.89-7.15-24.91,0-.03-.01-.06-.02-.09-1.17-6.46-2.18-14.18-.82-21.92,1.39-7.94,4.4-13.75,9.16-17.75.03-.03.07-.06.1-.09,3.5-2.9,7.95-4.7,13.5-5.49.44-.06.89-.12,1.33-.17,6.31-.73,11.92.47,16.31,2.89,1.78-2.01,4.02-3.69,6.53-4.91,2.66-1.3,5.66-2.18,8.91-2.57,1.57-.19,3.19-.27,4.8-.23,6.14.17,12.07,2.32,16.28,5.74,3.39,2.75,5.32,6.12,6.72,8.59.02.04.04.07.06.11,2.57,4.7,4.3,10.18,5.27,16.75.01.09.02.17.03.26.6,5.04.84,10.05,1.06,14.89.05,1,.09,2,.14,3,.43,8.36-.3,15.73-2.1,22.32-2,7.31-5.78,14.14-10.71,19.09-3.87,3.89-9.02,6.89-14.89,8.69-3.28,1.01-6.8,1.75-10.47,2.24ZM262.21,99.9h0Z"/>
              <path class="cls-15" d="M291.72,179.21c-5.22.5-9.42.24-13.25-.82-.17-.05-.34-.1-.51-.15-6.84-2.27-8.92-4.13-9.6-4.74-5.17-4.71-6.55-10.9-7.45-14.98,0,0-.24-1.1-.26-1.18-1.31-6.49-2.12-13.6-2.49-22.32-.43-2.87-.81-5.88-1.11-8.91-.51-5.27-1.26-12.39-.96-19.67.14-3.23.55-7.5,2.45-11.88,1.24-2.88,3.34-5.63,6.23-8.1.1-.09.21-.18.32-.26,3.88-3.08,8.78-5.35,15.34-7.12,4.35-1.17,9.03-1.99,14.25-2.45,1.34-.12,2.73-.2,4.13-.28,4.01-.22,9.34-.38,14.75.6,5.16.94,9.42,2.29,13.03,4.1.13.07.27.14.4.21,2.72,1.51,5.26,3.57,7.34,5.84,4.54,4.95,7.44,10.83,7.93,16.5.45,5.21-1.05,10.59-4.06,15.19,4.52,4.75,7.39,10.91,8.22,17.23.47,3.58.09,7.47-.9,11.09-1.72,6.27-5.94,12.6-13.08,18.93-.03.03-.06.05-.09.08-4.29,3.71-9.23,6.04-14.32,8.3-.11.05-.22.09-.33.14-3.14,1.27-6.66,2.1-10.27,2.62-3.99.58-8.09,1.07-11.91,1.57-1.43.18-2.65.35-3.81.46Z"/>
              <path class="cls-15" d="M359.18,174.29c-5.23.26-9.42-.18-13.19-1.4-.17-.06-.34-.11-.5-.18-6.73-2.57-8.72-4.52-9.37-5.16-4.95-4.93-6.05-11.18-6.77-15.3,0,0-.2-1.11-.21-1.19-1.02-6.54-1.51-13.68-1.5-22.41-.3-2.88-.55-5.91-.71-8.95-.28-5.29-.71-12.43-.08-19.69.28-3.22.88-7.47,2.97-11.76,1.37-2.82,3.58-5.48,6.58-7.82.11-.08.22-.17.33-.25,4.01-2.9,9-4.95,15.63-6.43,4.39-.98,9.1-1.59,14.33-1.81,1.34-.06,2.74-.08,4.14-.1,4.01-.04,9.35.03,14.7,1.25,5.11,1.16,9.3,2.71,12.83,4.68.13.07.26.15.39.23,2.65,1.62,5.09,3.8,7.07,6.16,4.32,5.15,6.95,11.14,7.18,16.84.22,5.23-1.52,10.53-4.73,14.99,4.3,4.95,6.9,11.22,7.45,17.58.31,3.59-.24,7.47-1.39,11.04-1.99,6.18-6.49,12.32-13.9,18.33-.03.02-.06.05-.09.07-4.45,3.52-9.48,5.63-14.66,7.66-.11.04-.22.08-.33.12-3.18,1.13-6.74,1.8-10.37,2.16-4.01.4-8.12.71-11.96,1.04-1.43.12-2.66.23-3.82.29Z"/>
              <path class="cls-15" d="M431.09,171.23c-3.25.01-5.94-.18-8.41-.56-5.69-.86-11.01-3.23-14.9-6.78-.06-.05-.11-.1-.16-.15-4.58-4.37-6.4-10.26-7.42-14.25-2.54-9.88-3.3-21.34-3.6-31.44-.23-7.81-.66-17.38.13-26.69.36-4.22,1.69-7.77,3.86-10.67,2.06-2.76,5.04-5.14,8.91-6.78,4.15-1.76,9.15-2.74,14.07-2.78,8.68-.07,15.88,2.75,20.15,7.85,2.75,3.28,4.3,7.52,4.75,12.5.2,2.28.23,4.76.08,7.48-.32,5.75-.82,11.64-1.31,17.31-.16,1.85-.32,3.66-.47,5.46,1.27-.2,2.64-.32,4.11-.31.49,0,.99.02,1.48.06,4.05.33,7.59,1.79,10.25,4.16,1.79,1.59,3.2,3.59,4.3,6.03,1.79,3.96,2.26,7.99,2.47,11,.25,3.46.35,8.09-1.22,12.73-1.45,4.28-4.19,8-7.75,10.41-.08.05-.16.11-.24.16-4.04,2.58-8.45,3.44-10.81,3.91-4.75.93-9.47,1.14-13.86,1.26-1.4.04-2.87.08-4.41.09Z"/>
              <path class="cls-15" d="M484.35,172.44c-.65-.02-1.3-.06-1.94-.1-5.97-.38-10.76-1.52-14.92-3.57-3.74-1.84-7.2-4.68-9.64-8.04-3.04-4.19-4.3-8.82-5.32-12.67-2.38-8.99-2.99-19.96-2.45-29.27.06-1.09.09-2.2.14-3.29.18-4.69.36-9.56,1.18-14.54.12-.71.23-1.36.33-2.02.82-5.02,1.75-10.71,4.32-16.27.04-.09.09-.19.13-.28,1.43-2.87,3.89-6.99,8.41-9.83,5.34-3.36,11.78-4.96,19.61-4.73,4.19.12,8.33.74,11.98,1.3,2.23.34,4.34.67,6.23.86.1.01.2.02.29.03,1.06.13,2.11.24,3.17.34,2.52.25,5.39.54,8.34,1.21.14.03.28.07.42.1,3.66.97,7.53,2.27,10.93,5.2.1.09.2.18.3.27,2.53,2.35,4.23,5.21,4.93,8.27.03.12.05.24.08.36.51,2.7.44,5.64-.05,8.65-.47,2.86-1.25,6.68-3.52,10.46-1.77,2.95-4.31,5.34-7.37,6.98.37,2.47.24,4.7.14,6.4-.01.21-.02.32-.03.54-.14,2.63-.72,5.3-1.68,7.82,1.99,1.32,3.71,3.09,4.96,5.15.09.14.17.29.25.44,2.33,4.28,2.95,8.74,3.29,12.49.29,3.28.41,8.21-1.96,13.08-1.93,3.98-5.36,7.45-9.41,9.51-5.46,2.78-11.51,3.64-16.1,4.14-4.5.5-9.66,1.17-15.04,1Z"/>
            </g>
            <g>
              <path class="cls-15" d="M559.58,176.55c-3.61-.29-7.44-.96-10-1.7-2.9-.84-5.71-2.33-8.06-4.33-2.32-1.97-5.17-5.63-5.89-11.67-.75-6.29-.96-12.71-1-18.65,0-.24,0-.47.02-.71.12-1.94.18-2.91.31-4.85.07-4.42.24-8.65.51-12.93,0-.05,0-.1.01-.16.55-6.91,1.32-14.33,3.38-21.79.01-.04.02-.08.03-.12,2.08-7.19,5.2-12.52,9.46-16.27,5.38-4.74,13.31-7.53,21.72-7.5.05,0,.1,0,.15,0,.8.01,1.64.06,2.5.13,2.69.23,5.2.71,7.41,1.14.46.09.68.13,1.14.22,3.67.66,7.85,1.4,11.99,2.98,4.99,1.9,9.79,4.75,13.89,8.2.07.06.13.11.2.17,6.21,5.47,10.67,12.49,12.64,19.63,1.56,5.66,1.88,11.97.96,19.78-.01.09-.02.17-.03.26-.66,4.6-2.18,11.34-7.24,16.74-3.55,3.79-8.24,6.8-13.05,8.56-3.37,1.23-7.92,2.79-13.13,3.28-.07,0-.15.01-.22.02-.92.07-1.83.1-2.73.11-.17,1.36-.38,2.67-.62,3.95-1.03,5.52-4.63,10.65-9.43,13.37-.05.03-.1.05-.14.08-3.54,1.93-8.22,2.57-14.75,2.04Z"/>
              <path class="cls-15" d="M639.37,183.69c-9.3-.98-20.32-6.24-27.1-12.44-10.51-9.61-14.32-26.78-12.38-40.41,3.36-23.53,19.64-45.05,45.29-45.28,2.65-.02,5.25.14,7.73.46,13.7,1.81,25.89,10.1,32.35,22.26,9.13,17.18,5.87,40.39-3.66,56.65-8.28,14.13-26.21,21.42-42.23,18.76Z"/>
              <path class="cls-15" d="M690.74,192.95c-3.58-.61-7.34-1.6-9.84-2.56-2.83-1.09-5.5-2.82-7.67-5.01-2.15-2.16-4.67-6.06-4.87-12.13-.21-6.33.14-12.75.61-18.67.02-.24.05-.47.08-.71.29-1.92.44-2.88.73-4.8.45-4.39.98-8.6,1.62-12.83,0-.05.02-.1.02-.15,1.14-6.84,2.56-14.17,5.26-21.41.01-.04.03-.08.04-.12,2.7-6.98,6.27-12.02,10.85-15.39,5.78-4.26,13.95-6.34,22.34-5.58.05,0,.1,0,.15.01.8.08,1.64.2,2.48.34,2.66.46,5.13,1.16,7.3,1.78.45.13.67.19,1.12.32,3.61.97,7.72,2.08,11.72,4.02,4.82,2.33,9.37,5.59,13.17,9.38.06.06.12.12.18.19,5.74,5.99,9.59,13.37,10.93,20.66,1.07,5.78.84,12.09-.75,19.79-.02.09-.04.17-.06.26-1.06,4.53-3.16,11.11-8.69,16.04-3.87,3.46-8.82,6.06-13.79,7.39-3.47.93-8.15,2.08-13.4,2.13-.07,0-.15,0-.22,0-.93-.01-1.84-.06-2.74-.13-.29,1.34-.61,2.63-.96,3.88-1.5,5.41-5.55,10.2-10.58,12.49-.05.02-.1.05-.15.07-3.7,1.61-8.43,1.84-14.91.75Z"/>
            </g>
          </g>
          <g>
            <g>
              <path class="cls-14" d="M154.33,191.56c-5.19.97-9.43,1.11-13.37.4-.18-.03-.35-.07-.53-.11-7.07-1.63-9.33-3.29-10.06-3.84-5.61-4.21-7.55-10.26-8.82-14.24,0,0-.34-1.07-.37-1.15-1.9-6.35-3.34-13.36-4.5-22-.68-2.81-1.34-5.78-1.91-8.77-.99-5.2-2.37-12.22-2.72-19.5-.15-3.23-.12-7.52,1.39-12.06.99-2.98,2.85-5.91,5.53-8.64.1-.1.2-.2.3-.29,3.62-3.42,8.33-6.13,14.76-8.5,4.26-1.57,8.88-2.81,14.07-3.74,1.33-.24,2.72-.45,4.12-.66,4-.58,9.34-1.23,14.84-.75,5.26.46,9.65,1.42,13.44,2.9.14.05.28.11.42.17,2.86,1.25,5.59,3.07,7.89,5.14,5,4.52,8.43,10.1,9.43,15.71.92,5.15-.1,10.64-2.71,15.5,4.95,4.32,8.39,10.19,9.79,16.41.79,3.52.76,7.44.1,11.13-1.16,6.4-4.83,13.09-11.42,20.05-.03.03-.05.06-.08.08-3.97,4.09-8.72,6.86-13.62,9.58-.1.06-.21.11-.31.17-3.03,1.55-6.49,2.7-10.07,3.55-3.95.94-8.02,1.81-11.81,2.65-1.42.31-2.63.59-3.78.8Z"/>
              <path class="cls-14" d="M234.02,176.81c-.67.09-1.33.17-1.99.24-4.07.43-10.28.41-16.53-2.1-6.01-2.41-11.51-5.95-15.75-10.09-4.12-4.01-7.53-8.9-9.98-14.42-3.68-8.29-5.68-16.88-7.2-24.9,0-.03-.01-.06-.02-.09-1.2-6.43-2.2-14.18-.83-21.92,1.4-7.94,4.41-13.76,9.19-17.77.03-.03.07-.06.1-.09,3.52-2.9,7.98-4.71,13.55-5.51.45-.06.89-.12,1.34-.17,6.33-.74,11.97.45,16.38,2.86,1.79-2.01,4.04-3.7,6.55-4.92,2.67-1.3,5.68-2.19,8.94-2.59,1.57-.19,3.2-.28,4.82-.23,6.17.16,12.13,2.3,16.36,5.71,3.41,2.75,5.35,6.12,6.75,8.58.02.04.04.07.06.11,2.6,4.69,4.32,10.17,5.31,16.74.01.09.02.17.04.26.61,5.04.85,10.05,1.07,14.89.05,1,.09,2,.14,3,.44,8.36-.29,15.73-2.09,22.33-2,7.32-5.79,14.15-10.74,19.11-3.89,3.89-9.06,6.91-14.95,8.72-3.29,1.02-6.83,1.77-10.52,2.26Z"/>
              <path class="cls-14" d="M289.1,172.47c-5.24.51-9.46.26-13.31-.79-.17-.05-.34-.1-.51-.15-6.88-2.25-8.97-4.11-9.65-4.72-5.2-4.7-6.58-10.89-7.49-14.97,0,0-.25-1.1-.26-1.18-1.32-6.49-2.14-13.6-2.52-22.31-.43-2.87-.82-5.88-1.12-8.91-.52-5.27-1.28-12.38-.97-19.66.13-3.23.55-7.5,2.45-11.89,1.25-2.88,3.35-5.63,6.25-8.11.1-.09.21-.18.32-.26,3.9-3.09,8.81-5.36,15.4-7.15,4.37-1.18,9.07-2.01,14.31-2.47,1.34-.12,2.75-.21,4.15-.29,4.02-.22,9.38-.4,14.81.57,5.18.93,9.46,2.28,13.09,4.08.13.07.27.14.4.21,2.74,1.5,5.29,3.56,7.38,5.83,4.57,4.95,7.48,10.81,7.98,16.49.46,5.21-1.05,10.59-4.07,15.19,4.54,4.75,7.44,10.9,8.28,17.22.48,3.57.1,7.47-.89,11.09-1.72,6.27-5.95,12.61-13.12,18.95-.03.03-.06.05-.09.08-4.31,3.73-9.27,6.06-14.38,8.33-.11.05-.22.09-.33.14-3.14,1.28-6.68,2.11-10.32,2.64-4.01.58-8.12,1.09-11.96,1.59-1.43.19-2.67.35-3.83.46Z"/>
              <path class="cls-14" d="M356.87,167.44c-5.25.27-9.46-.16-13.25-1.38-.17-.05-.34-.11-.5-.18-6.76-2.56-8.77-4.5-9.42-5.15-4.98-4.92-6.09-11.17-6.82-15.29,0,0-.2-1.11-.21-1.19-1.04-6.55-1.53-13.68-1.53-22.4-.3-2.88-.56-5.91-.72-8.95-.29-5.29-.73-12.43-.1-19.69.28-3.22.88-7.47,2.97-11.77,1.37-2.82,3.59-5.48,6.6-7.83.11-.08.22-.17.33-.25,4.03-2.91,9.03-4.97,15.69-6.46,4.41-.99,9.14-1.6,14.39-1.83,1.34-.06,2.75-.09,4.16-.1,4.03-.04,9.39.02,14.76,1.23,5.13,1.16,9.35,2.69,12.89,4.66.13.07.26.15.39.22,2.66,1.62,5.12,3.79,7.11,6.15,4.34,5.14,6.99,11.14,7.24,16.83.22,5.23-1.51,10.53-4.73,15,4.32,4.94,6.94,11.21,7.5,17.57.32,3.59-.23,7.47-1.38,11.04-1.99,6.19-6.5,12.33-13.94,18.35-.03.02-.06.05-.09.07-4.47,3.54-9.52,5.64-14.72,7.68-.11.04-.22.08-.33.12-3.2,1.13-6.77,1.81-10.42,2.18-4.03.4-8.16.73-12.01,1.06-1.44.12-2.68.23-3.84.29Z"/>
              <path class="cls-14" d="M429.1,164.29c-3.27.02-5.97-.18-8.45-.55-5.72-.86-11.07-3.21-14.97-6.76-.06-.05-.11-.1-.17-.15-4.61-4.36-6.44-10.25-7.47-14.24-2.56-9.88-3.34-21.34-3.65-31.43-.24-7.81-.68-17.38.1-26.69.35-4.22,1.69-7.78,3.86-10.68,2.06-2.76,5.06-5.15,8.94-6.79,4.16-1.77,9.18-2.75,14.13-2.79,8.72-.08,15.95,2.73,20.25,7.82,2.76,3.28,4.33,7.52,4.78,12.49.21,2.28.24,4.76.09,7.48-.32,5.75-.81,11.64-1.3,17.31-.16,1.85-.32,3.66-.46,5.46,1.28-.2,2.66-.33,4.13-.32.5,0,.99.02,1.49.06,4.07.32,7.62,1.78,10.31,4.14,1.8,1.58,3.22,3.59,4.33,6.03,1.81,3.96,2.28,7.98,2.5,11,.25,3.46.37,8.09-1.21,12.73-1.45,4.28-4.2,8.01-7.77,10.42-.08.05-.16.11-.24.16-4.06,2.58-8.48,3.45-10.85,3.92-4.77.94-9.52,1.15-13.92,1.28-1.4.04-2.88.09-4.43.09Z"/>
              <path class="cls-14" d="M482.6,165.43c-.65-.02-1.3-.05-1.95-.09-6-.37-10.81-1.51-14.99-3.55-3.76-1.84-7.24-4.67-9.7-8.02-3.06-4.18-4.33-8.81-5.37-12.67-2.4-8.98-3.03-19.96-2.5-29.27.06-1.09.09-2.2.13-3.29.18-4.69.35-9.56,1.17-14.54.12-.71.23-1.36.33-2.02.82-5.02,1.74-10.71,4.32-16.27.04-.09.09-.19.13-.28,1.43-2.87,3.9-6.99,8.43-9.84,5.35-3.36,11.82-4.97,19.69-4.75,4.21.12,8.37.73,12.03,1.28,2.24.34,4.36.66,6.26.85.1,0,.2.02.3.03,1.06.13,2.12.23,3.18.34,2.54.25,5.41.54,8.38,1.2.14.03.28.06.42.1,3.68.96,7.57,2.26,10.99,5.19.1.09.21.18.31.27,2.54,2.35,4.26,5.21,4.96,8.27.03.12.05.24.08.36.52,2.7.45,5.64-.04,8.65-.47,2.86-1.25,6.68-3.52,10.46-1.78,2.95-4.32,5.35-7.39,6.99.37,2.47.25,4.7.15,6.4-.01.21-.02.32-.03.54-.14,2.63-.71,5.3-1.67,7.82,2,1.32,3.73,3.09,4.99,5.14.09.14.17.29.25.44,2.35,4.28,2.98,8.74,3.33,12.48.3,3.28.42,8.21-1.95,13.09-1.93,3.98-5.37,7.46-9.44,9.52-5.48,2.78-11.56,3.65-16.17,4.16-4.52.5-9.7,1.18-15.11,1.02Z"/>
            </g>
            <g>
              <path class="cls-14" d="M558.18,169.46c-3.63-.29-7.47-.95-10.05-1.69-2.92-.84-5.73-2.33-8.1-4.32-2.33-1.96-5.2-5.62-5.93-11.66-.76-6.29-.99-12.71-1.04-18.65,0-.24,0-.47.02-.71.12-1.94.18-2.91.3-4.85.06-4.42.22-8.65.49-12.93,0-.05,0-.1.01-.16.53-6.91,1.31-14.34,3.36-21.79.01-.04.02-.08.03-.12,2.07-7.19,5.2-12.52,9.47-16.28,5.39-4.75,13.36-7.54,21.8-7.52.05,0,.1,0,.15,0,.81.01,1.65.05,2.51.13,2.7.22,5.22.7,7.44,1.13.46.09.69.13,1.14.22,3.69.65,7.88,1.4,12.05,2.97,5.01,1.9,9.83,4.75,13.96,8.19.07.06.13.11.2.17,6.25,5.46,10.74,12.48,12.72,19.62,1.58,5.66,1.91,11.97,1,19.78-.01.09-.02.17-.03.26-.66,4.6-2.17,11.34-7.24,16.74-3.56,3.79-8.26,6.81-13.1,8.57-3.38,1.23-7.95,2.79-13.18,3.3-.07,0-.15.01-.22.02-.93.07-1.84.1-2.74.11-.17,1.36-.38,2.67-.62,3.95-1.02,5.52-4.64,10.65-9.45,13.37-.05.03-.1.05-.14.08-3.55,1.93-8.25,2.58-14.81,2.05Z"/>
              <path class="cls-14" d="M638.34,176.53c-9.34-.97-20.41-6.22-27.24-12.42-10.55-9.59-14.43-26.75-12.5-40.4,3.34-23.61,19.72-45.07,45.4-45.32,2.66-.03,5.27.13,7.76.46,13.74,1.79,26,10.06,32.52,22.24,9.19,17.16,5.98,40.39-3.56,56.66-8.31,14.17-26.32,21.44-42.38,18.79Z"/>
              <path class="cls-14" d="M689.95,185.77c-3.6-.6-7.38-1.6-9.89-2.56-2.84-1.09-5.52-2.82-7.72-5.01-2.16-2.16-4.71-6.05-4.92-12.13-.22-6.34.11-12.75.58-18.67.02-.24.05-.47.08-.71.29-1.92.43-2.88.72-4.8.45-4.39.97-8.6,1.6-12.84,0-.05.02-.1.02-.15,1.14-6.83,2.54-14.17,5.24-21.42.01-.04.03-.08.04-.12,2.7-6.98,6.27-12.02,10.86-15.4,5.8-4.26,13.99-6.35,22.42-5.59.05,0,.1,0,.15.01.81.08,1.64.2,2.49.34,2.68.46,5.15,1.16,7.34,1.78.45.13.67.19,1.12.32,3.63.97,7.75,2.08,11.78,4.01,4.85,2.33,9.42,5.59,13.25,9.38.06.06.12.12.18.19,5.77,5.99,9.65,13.37,11.02,20.66,1.09,5.78.87,12.09-.71,19.8-.02.09-.04.17-.06.26-1.05,4.53-3.15,11.11-8.69,16.05-3.88,3.46-8.84,6.06-13.83,7.39-3.49.93-8.18,2.09-13.46,2.13-.07,0-.15,0-.22,0-.93-.01-1.85-.06-2.75-.13-.29,1.34-.61,2.63-.96,3.89-1.5,5.41-5.55,10.2-10.6,12.5-.05.02-.1.05-.15.07-3.71,1.61-8.46,1.85-14.97.75Z"/>
            </g>
          </g>
          <g>
            <g>
              <path class="cls-5" d="M153.36,186.41c-4.53.85-8.15.98-11.42.39-.09-.02-.18-.03-.26-.05-1.79-.42-6.18-1.52-8.04-2.91-4.26-3.21-5.74-7.9-6.92-11.66,0,0-.32-1.02-.34-1.06-1.82-6.16-3.19-13-4.29-21.5-.68-2.84-1.34-5.83-1.89-8.79-.93-5.04-2.27-11.85-2.57-18.83-.12-2.8-.09-6.49,1.17-10.25.75-2.23,2.19-4.47,4.28-6.6.05-.05.1-.1.15-.14,3.04-2.87,7.1-5.18,12.75-7.26,3.94-1.45,8.23-2.6,13.06-3.47,1.28-.23,2.62-.43,3.96-.63,3.6-.52,8.51-1.14,13.42-.7,4.68.41,8.55,1.25,11.83,2.52.07.03.14.06.21.09,2.33,1.01,4.55,2.51,6.42,4.19,4.17,3.76,7.06,8.33,7.88,12.86.96,5.26-.8,11.25-4.54,15.78.3.19.59.4.87.59,5.39,3.72,9.48,9.49,10.91,15.74.65,2.85.62,6.07.08,9.1-.95,5.33-4.14,11.21-10.01,17.35-3.73,3.9-8.75,6.64-12.38,8.65-.05.03-.1.06-.16.08-2.64,1.35-5.68,2.35-8.85,3.1-3.88.92-7.95,1.79-11.73,2.63-1.36.3-2.52.57-3.61.77Z"/>
              <path class="cls-5" d="M233.33,171.61c-.62.08-1.23.15-1.84.22-4.91.52-9.87-.1-13.93-1.73-5.39-2.17-10.26-5.31-13.98-8.96-3.63-3.55-6.65-7.91-8.82-12.83-3.42-7.77-5.36-16.06-6.75-23.76-1.15-6.39-2.02-13.29-.77-20.25,1.2-6.69,3.63-11.54,7.4-14.66,2.71-2.25,6.22-3.64,10.68-4.28.4-.06.79-.1,1.18-.15,7.54-.89,13.74,1.68,17.31,5.62.27-.71.6-1.42.99-2.11,1.4-2.52,3.81-4.79,6.59-6.14,2.07-1.01,4.44-1.71,7.04-2.03,1.28-.16,2.61-.23,3.94-.19,4.89.13,9.61,1.83,12.92,4.48,2.58,2.08,4.17,4.74,5.49,7.09,2.36,4.18,3.91,9.15,4.82,15.12,0,.04.01.09.02.13.62,4.85.85,9.76,1.09,14.51.05,1,.1,2.01.15,3.01.44,7.84-.22,14.69-1.86,20.74-1.72,6.37-5.01,12.4-9.33,16.73-3.26,3.27-7.66,5.82-12.72,7.38-2.99.92-6.23,1.61-9.63,2.06ZM229.61,130.57h0ZM228.06,124.48c.05.34.1.68.16,1.01-.05-.36-.11-.7-.16-1.01Z"/>
              <path class="cls-5" d="M288.6,167.25c-4.57.44-8.18.25-11.37-.63-.09-.02-.17-.05-.26-.08-1.74-.57-6.01-2.06-7.72-3.62-3.94-3.57-5-8.38-5.84-12.23,0,0-.23-1.05-.24-1.09-1.26-6.3-2.02-13.23-2.36-21.79-.43-2.89-.81-5.93-1.1-8.92-.48-5.1-1.2-12.01-.89-18.98.13-2.8.49-6.47,2.07-10.1.94-2.16,2.57-4.26,4.83-6.19.05-.04.11-.09.16-.13,3.27-2.58,7.51-4.52,13.3-6.09,4.04-1.09,8.4-1.86,13.28-2.29,1.29-.11,2.64-.2,3.99-.27,3.63-.2,8.55-.37,13.39.49,4.61.83,8.39,2,11.53,3.56.07.03.13.07.2.1,2.23,1.22,4.3,2.9,6.01,4.75,3.81,4.12,6.28,8.93,6.7,13.51.48,5.32-1.8,11.13-5.91,15.32.28.22.55.45.81.67,5.02,4.18,8.58,10.3,9.45,16.65.4,2.9.08,6.1-.72,9.07-1.41,5.23-5.1,10.8-11.47,16.39-4.05,3.55-9.28,5.83-13.07,7.51-.05.02-.11.05-.16.07-2.74,1.11-5.85,1.84-9.07,2.3-3.94.57-8.05,1.08-11.88,1.58-1.38.18-2.55.34-3.65.44Z"/>
              <path class="cls-5" d="M356.6,162.2c-4.58.24-8.18-.12-11.33-1.13-.09-.03-.17-.06-.25-.09-1.71-.65-5.9-2.33-7.55-3.96-3.78-3.75-4.62-8.6-5.29-12.48,0,0-.18-1.06-.19-1.1-.98-6.34-1.43-13.31-1.39-21.88-.3-2.91-.55-5.96-.7-8.96-.26-5.12-.67-12.05-.05-19.01.25-2.79.77-6.45,2.51-10,1.03-2.12,2.75-4.14,5.1-5.97.05-.04.11-.08.16-.12,3.38-2.44,7.7-4.18,13.54-5.49,4.08-.91,8.47-1.48,13.35-1.7,1.29-.06,2.64-.08,4-.1,3.63-.04,8.55,0,13.35,1.09,4.57,1.03,8.28,2.37,11.36,4.07.07.04.13.07.19.11,2.17,1.31,4.17,3.09,5.79,5.01,3.63,4.28,5.87,9.2,6.09,13.8.25,5.34-2.29,11.04-6.58,15.04.27.23.53.47.78.7,4.83,4.4,8.11,10.67,8.7,17.05.27,2.91-.19,6.1-1.12,9.03-1.64,5.16-5.58,10.56-12.18,15.86-4.2,3.37-9.53,5.41-13.38,6.93-.06.02-.11.04-.17.06-2.79.99-5.93,1.57-9.15,1.9-3.96.39-8.09.72-11.93,1.05-1.39.12-2.56.22-3.66.28Z"/>
              <path class="cls-5" d="M429.08,159.04c-2.99.01-5.43-.16-7.63-.49-4.68-.7-9.03-2.59-12.15-5.42-.03-.03-.06-.05-.08-.08-3.58-3.39-5.03-8.1-5.96-11.73-2.44-9.56-3.12-20.66-3.39-30.41-.21-7.59-.61-16.97.18-26,.29-3.3,1.32-5.99,2.9-8.1,1.49-1.98,3.72-3.77,6.68-5.03,3.45-1.46,7.66-2.28,11.84-2.32,6.94-.06,12.58,2.03,15.8,5.84,2.08,2.45,3.26,5.77,3.63,9.73.18,1.95.23,4.2.1,6.69-.29,5.7-.76,11.55-1.23,17.18-.34,4.12-.69,8.34-.95,12.54.24-.05.48-.1.72-.14.73-.14,1.49-.33,2.29-.53,2.08-.51,4.43-1.08,7.03-1.06.37,0,.74.02,1.11.05,2.84.22,5.29,1.23,7.08,2.81,1.58,1.38,2.47,3.09,3,4.24,1.48,3.22,1.88,6.67,2.08,9.25.24,3.15.35,6.96-.91,10.71-1.07,3.2-3.08,5.98-5.7,7.74-.04.03-.08.05-.12.08-2.95,1.88-6.2,2.63-9.01,3.18-4.37.86-8.84,1.06-13.02,1.18-1.38.04-2.83.08-4.31.09Z"/>
              <path class="cls-5" d="M482.76,160.19c-.61-.02-1.21-.05-1.81-.09-5.22-.33-9.4-1.29-12.93-3.01-2.95-1.44-5.8-3.75-7.71-6.37-2.52-3.45-3.57-7.35-4.49-10.91-2.45-9.39-2.63-19.36-2.23-27.74.05-1.11.1-2.21.14-3.32.19-4.54.37-9.26,1.16-13.94.12-.69.23-1.35.34-2.02.82-4.94,1.67-10.04,3.97-14.99.02-.05.04-.09.07-.14,1.15-2.3,3.13-5.6,6.51-7.72,4.36-2.73,9.74-4.05,16.38-3.86,3.85.11,7.64.67,11.3,1.22,2.32.35,4.51.68,6.56.89.05,0,.1.01.15.02,1.11.14,2.23.25,3.34.36,2.48.24,5.04.5,7.66,1.08.07.02.14.03.21.05,2.8.73,6.01,1.71,8.69,3.99.05.04.1.09.15.14,1.76,1.62,2.95,3.57,3.43,5.63.01.06.03.12.04.18.41,2.12.35,4.48-.04,6.93-.39,2.41-1.01,5.63-2.83,8.68-1.38,2.3-3.43,4.12-5.86,5.31-1.08.53-2.21.95-3.35,1.25.02.04.05.09.07.13.06.12.12.23.17.35,1.36,3.06,1.2,6.17,1.07,8.66-.01.22-.02.33-.03.56-.12,2.57-.8,5.19-1.87,7.57-.52,1.15-1.25,2.25-2.15,3.2.86.11,1.97.29,3.13.78.04.02.07.03.11.05,1.97.88,3.71,2.41,4.89,4.31.04.07.09.14.13.22,1.91,3.47,2.44,7.3,2.75,10.54.25,2.58.38,6.61-1.43,10.37-1.39,2.89-3.96,5.52-7.01,7.07-4.69,2.38-9.92,3.12-14.33,3.61-4.34.48-9.33,1.14-14.35.99Z"/>
            </g>
            <g>
              <path class="cls-5" d="M558.6,164.23c-3.25-.26-6.78-.86-8.99-1.5-2.17-.62-4.37-1.8-6.14-3.28-1.55-1.3-3.53-3.87-4.05-8.26-.67-5.69-.91-11.38-.94-18.07,0-.12,0-.24.01-.35.13-1.99.2-2.98.33-4.96.08-4.38.22-8.6.52-12.81.49-6.69,1.28-13.94,3.28-20.93,1.8-6.29,4.5-10.86,8.01-13.95,4.34-3.81,10.97-6.15,17.96-6.09.74,0,1.45.05,2.17.11,2.38.2,4.63.63,6.8,1.04.49.09.74.14,1.23.24,3.6.64,7.33,1.3,10.99,2.68,4.39,1.66,8.65,4.18,12.31,7.22.03.03.07.06.1.08,5.49,4.79,9.42,10.92,11.16,17.11,1.4,4.97,1.71,10.68.9,17.85,0,.04-.01.09-.02.13-.56,3.91-1.8,9.64-5.86,13.98-2.95,3.15-6.91,5.7-10.96,7.18-3.07,1.11-7.2,2.55-11.81,2.99-.04,0-.07,0-.11,0-2.47.19-4.89.07-7.24-.07-.16,3.11-.49,5.84-.96,8.44-.72,3.99-3.34,7.8-6.82,9.75-1,.56-3.85,2.09-11.87,1.45ZM579.31,106.73c-.45.98-.71,2.27-.94,3.53-.02.11-.04.23-.06.34.41-.22.75-.45.95-.62.78-.83.86-1.21.87-1.25,0-.03,0-.06.01-.09.06-.34-.25-1.25-.83-1.91Z"/>
              <path class="cls-5" d="M639.04,171.33c-9.07-1.21-17.84-5.13-24.37-11.12-9.44-8.66-12.41-23.51-10.63-35.83,3.04-21.04,17.02-40.53,40.15-40.73,2.36-.02,4.68.12,6.88.4,11.92,1.56,22.9,8.66,28.21,19.29,8.61,17.23,4.81,35.58-3.27,51.8-6.43,12.91-23.21,17.76-36.97,16.2ZM647.26,120.25c-.87-.12-3.24,1.41-3.9,4.32-1.01,4.47.63,8.82,1.7,9.75.13-.05.34-.15.62-.33.55-.35,1.98-2.34,2.69-5.97.7-3.6.19-6.36-.4-7.16-.24-.33-.53-.57-.71-.6Z"/>
              <path class="cls-5" d="M690.82,180.6c-3.23-.54-6.7-1.45-8.85-2.28-2.12-.81-4.21-2.17-5.85-3.81-1.43-1.43-3.19-4.17-3.33-8.58-.17-5.72.08-11.41.63-18.08,0-.12.02-.24.04-.35.3-1.97.45-2.95.75-4.92.46-4.36.96-8.55,1.63-12.71,1.07-6.63,2.48-13.78,5.08-20.57,2.34-6.11,5.43-10.43,9.21-13.2,4.67-3.42,11.49-5.17,18.47-4.5.74.07,1.45.17,2.16.3,2.36.4,4.57,1.03,6.7,1.63.49.14.73.2,1.21.34,3.54.95,7.21,1.93,10.75,3.63,4.24,2.04,8.28,4.91,11.67,8.27.03.03.06.06.09.09,5.07,5.25,8.47,11.7,9.68,18.02.97,5.07.79,10.79-.64,17.86,0,.04-.02.09-.03.13-.9,3.85-2.63,9.44-7.07,13.42-3.22,2.88-7.39,5.08-11.57,6.19-3.16.84-7.42,1.91-12.06,1.95-.04,0-.07,0-.11,0-2.48-.03-4.89-.35-7.23-.7-.43,3.09-.99,5.78-1.69,8.33-1.06,3.91-4.01,7.48-7.66,9.12-1.04.47-4.03,1.75-11.99.41ZM716.47,125.12c-.53.94-.91,2.2-1.25,3.43-.03.11-.06.22-.09.34.43-.19.79-.38,1-.54.85-.76.97-1.13.98-1.17,0-.03.02-.06.02-.09.09-.33-.14-1.27-.66-1.97Z"/>
            </g>
          </g>
          <g>
            <g>
              <path class="cls-16" d="M142.94,181.64c-1.2-.28-5.16-1.33-6.01-1.98-3.19-2.43-4.27-6.53-5.35-10.04-2.05-6.73-2.89-14.37-4.08-20.99-.5-2.79-1.34-5.9-1.86-8.8-1.07-5.89-2.18-12-2.43-18.16-.11-2.73-.03-5.6.94-8.44.55-1.64,1.66-3.18,3.03-4.57,2.86-2.69,6.77-4.56,10.75-6.02,5-1.84,10.4-3,15.78-3.79,4.01-.58,8.11-1.02,12.08-.67,3.53.31,7.11.94,10.23,2.15,1.87.81,3.57,1.95,4.96,3.25,3.14,2.74,5.64,6.29,6.33,10.02.73,3.93-.7,8.5-3.66,11.92-1.42,1.75-3.31,3.27-5.32,4.61,2.87.64,5.48,1.64,7.52,3.13,4.62,3.01,7.74,7.85,8.86,12.66.54,2.32.53,4.77.06,7.07-.74,5.28-4.53,10.37-8.6,14.63-2.98,3.13-7.09,5.43-11.06,7.63-2.38,1.22-5.08,2.05-7.62,2.65-3.81.9-7.81,1.76-11.66,2.62-4.14.92-8.78,1.85-12.88,1.12ZM154.09,154.02c2.04-.37,4.08-.92,5.95-1.48,2.28-.68,4.66-1.64,6.3-3.14.55-.5,1.73-1.98,1.77-2.54.05-.58-.29-1.06-.79-1.49-2.39-2.22-8.98-2.28-12.47-1.04-.6.21-1.18.52-1.43.87-1.08,1.62.44,7.03.66,8.82ZM149.87,126.85c3.45-.53,6.65-1.81,9.72-3.26.69-.32,2.64-1.39,2.88-1.92.25-.55-.24-1.99-.65-2.52-.8-.88-2.19-1.44-3.6-1.5-1.84-.08-6.53.25-7.94,1.42-.47.39-.53,1.82-.55,2.33-.1,1.85-.08,3.67.13,5.46Z"/>
              <path class="cls-16" d="M230.95,166.61c-3.75.4-7.82.04-11.32-1.37-4.46-1.8-8.8-4.46-12.22-7.82-3.21-3.15-5.83-7.04-7.63-11.18-3.13-7.17-4.97-14.95-6.33-22.68-1.06-5.98-1.82-12.37-.7-18.5.76-4.16,2.23-8.77,5.6-11.56,2.39-1.98,5.69-2.73,8.75-3.09,6.13-.72,13.33,2.14,14.44,7.68.84,4.19.6,8.49.54,12.73-.11,7.07-.13,14.61,2.23,21.18,1.77,4.92,7.03,3.38,8.77-.46,1.24-2.73.79-6.16.19-9.09-1.62-7.92-4.97-15.66-5.1-23.72-.04-2.59.27-5.38,1.59-7.66.87-1.62,2.44-3.02,4.15-3.85,2.43-1.18,5.42-1.69,8.22-1.62,3.35.09,6.94,1.22,9.43,3.22,1.87,1.5,3.09,3.57,4.29,5.65,2.28,4.07,3.61,8.81,4.27,13.4.8,5.57.93,11.37,1.27,17.15.38,6.38.02,12.99-1.61,19.09-1.4,5.23-4.07,10.53-7.93,14.41-2.85,2.86-6.62,4.84-10.47,6.03-3.36,1.04-6.98,1.7-10.43,2.07Z"/>
              <path class="cls-16" d="M278.67,161.57c-1.17-.38-5-1.79-5.8-2.51-2.95-2.7-3.67-6.88-4.42-10.48-1.44-6.89-1.61-14.57-2.2-21.27-.25-2.83-.81-5.99-1.07-8.93-.54-5.96-1.11-12.14-.81-18.31.13-2.73.47-5.58,1.68-8.32.69-1.58,1.93-3.02,3.41-4.28,3.08-2.43,7.13-3.93,11.2-5.04,5.13-1.39,10.59-2.06,16.01-2.37,4.04-.22,8.15-.29,12.06.41,3.48.62,6.98,1.57,9.98,3.05,1.78.97,3.37,2.26,4.64,3.68,2.88,3,5.04,6.77,5.4,10.55.38,3.98-1.44,8.41-4.69,11.54-1.57,1.61-3.57,2.96-5.69,4.12,2.8.89,5.3,2.12,7.19,3.79,4.32,3.4,6.99,8.5,7.68,13.4.33,2.35.11,4.8-.57,7.05-1.2,5.19-5.41,9.92-9.83,13.81-3.24,2.85-7.52,4.77-11.66,6.62-2.47,1-5.23,1.59-7.8,1.96-3.86.56-7.92,1.06-11.81,1.57-4.2.55-8.89,1.06-12.89-.04ZM292.18,135.05c2.06-.19,4.13-.56,6.04-.95,2.32-.47,4.78-1.22,6.53-2.57.59-.45,1.89-1.82,1.99-2.37.1-.57-.19-1.09-.65-1.55-2.18-2.43-8.72-3.07-12.29-2.14-.61.16-1.22.41-1.5.74-1.22,1.52-.19,7.04-.12,8.84ZM290.39,107.62c3.47-.22,6.76-1.21,9.94-2.39.72-.26,2.75-1.15,3.03-1.66.3-.53-.06-2-.43-2.57-.71-.94-2.05-1.63-3.44-1.81-1.82-.24-6.51-.33-8.01.71-.5.35-.69,1.77-.75,2.28-.26,1.83-.41,3.65-.35,5.45Z"/>
              <path class="cls-16" d="M346.94,156.09c-1.15-.43-4.91-2.01-5.67-2.76-2.83-2.83-3.35-7.04-3.95-10.67-1.14-6.94-.96-14.62-1.25-21.35-.13-2.84-.54-6.02-.68-8.97-.28-5.98-.57-12.18,0-18.32.25-2.72.71-5.55,2.04-8.24.76-1.55,2.06-2.93,3.59-4.12,3.18-2.29,7.29-3.61,11.41-4.53,5.18-1.16,10.66-1.59,16.09-1.65,4.04-.05,8.15.07,12.02.94,3.44.78,6.9,1.87,9.83,3.49,1.74,1.05,3.26,2.41,4.47,3.88,2.74,3.13,4.74,6.99,4.93,10.78.2,3.99-1.81,8.34-5.2,11.32-1.64,1.54-3.7,2.8-5.87,3.86,2.75,1.02,5.19,2.35,7.01,4.1,4.16,3.59,6.61,8.81,7.08,13.73.23,2.37-.11,4.8-.88,7.02-1.43,5.13-5.84,9.67-10.43,13.36-3.36,2.7-7.72,4.44-11.94,6.09-2.51.89-5.29,1.35-7.88,1.61-3.88.38-7.95.71-11.86,1.04-4.21.36-8.92.66-12.86-.61ZM361.59,130.2c2.07-.1,4.15-.37,6.08-.68,2.34-.37,4.82-1,6.64-2.28.6-.42,1.97-1.73,2.09-2.28.12-.57-.15-1.09-.58-1.58-2.07-2.52-8.57-3.45-12.18-2.69-.62.13-1.23.36-1.53.67-1.28,1.46-.5,7.03-.52,8.83ZM361.02,102.71c3.47-.06,6.8-.91,10.03-1.94.73-.23,2.79-1.03,3.1-1.52.32-.51.03-2-.31-2.59-.67-.97-1.97-1.72-3.36-1.97-1.81-.32-6.48-.62-8.02.35-.51.32-.77,1.74-.85,2.24-.34,1.82-.57,3.63-.59,5.43Z"/>
              <path class="cls-16" d="M422.25,153.37c-3.32-.5-6.89-1.82-9.32-4.09-2.48-2.31-3.67-5.94-4.45-9.22-2.47-9.31-2.91-19.93-3.14-29.33-.2-8.33-.55-16.98.25-25.39.17-2,.79-4.03,1.92-5.53,1.06-1.41,2.73-2.55,4.43-3.27,6.16-2.59,16.76-2.87,20.93,2.02,1.6,1.9,2.22,4.52,2.46,6.89.19,1.98.22,4.01.11,6-.69,11.94-1.69,23.97-2.36,35.98,2.59,0,5.07-.5,7.55-1,3-.59,5.92-1.68,8.91-1.45,1.34.11,2.79.54,3.82,1.44.81.71,1.33,1.61,1.73,2.52,1.11,2.31,1.45,4.95,1.66,7.52.23,2.87.29,5.92-.63,8.69-.65,1.96-1.9,3.91-3.63,5.05-2.11,1.39-4.71,1.96-7.15,2.44-3.97.78-8.15.96-12.11,1.07-3.66.1-7.45.19-10.99-.34Z"/>
              <path class="cls-16" d="M481.31,154.87c-3.73-.23-7.6-.81-10.93-2.48-2.22-1.05-4.32-2.79-5.72-4.71-1.99-2.73-2.86-5.95-3.63-9.16-2.33-8.43-2.43-17.43-1.98-26.21.28-5.59.36-11.21,1.3-16.67.91-5.27,1.64-10.77,3.97-15.73,1.1-2.18,2.53-4.35,4.59-5.61,8.7-4.83,21.61-2.32,30.54-.9,3.38.54,7.12.54,10.44,1.34,2.3.55,4.65,1.32,6.4,2.81.92.85,1.64,1.9,1.88,3,.37,1.68.21,3.54-.05,5.2-.37,2.33-.88,4.76-2.15,6.9-.81,1.36-2.03,2.5-3.55,3.23-2.93,1.46-6.58,1.66-9.89,1.46-2.69-.16-5.59-.44-8.2-1.02-1.73-.38-3.57-.53-5.26-.58-.32-.01-.44.59-.55.78-.35.99-.59,1.88-.52,2.88,4.93.86,10.12.15,14.79,1.75,1.66.57,3.27,1.76,3.97,3.17,1,2.02.74,4.63.64,6.93-.09,2-.63,3.99-1.41,5.74-.94,2.12-3.44,3.83-5.91,4.25-3.94.68-8.1-.21-12.04-.74-.2-.11-.62-.12-.73-.02-.88,1.37-1.39,5.27-1.05,6.77.47,2.08,3.68,2.14,5.84,1.9,3.7-.42,7.6-1.11,11.35-1.65,1.25-.15,2.52-.31,3.74-.14.92.13,1.87.18,2.67.52,1.01.43,1.91,1.29,2.48,2.22,1.43,2.57,1.87,5.62,2.16,8.51.26,2.6.22,5.32-.9,7.66-.92,1.93-2.64,3.67-4.63,4.68-3.77,1.92-8.22,2.59-12.47,3.06-4.97.55-10.15,1.19-15.19.88Z"/>
            </g>
            <g>
              <path class="cls-13" d="M551.09,157.69c-1.5-.41-2.97-1.23-4.13-2.21-1.43-1.21-2.03-3.05-2.21-4.87-.72-5.76-1.04-11.79-.84-17.49.06-1.64.28-3.43.35-5.08.19-4.19.24-8.53.56-12.68.51-6.62,1.31-13.48,3.17-19.91,1.22-4.2,3.19-8.59,6.47-11.46,3.66-3.2,9.18-4.76,14.19-4.71,2.98.03,6.08.73,9.02,1.27,3.36.61,6.89,1.21,10.09,2.42,3.83,1.45,7.49,3.63,10.65,6.26,4.43,3.86,8.03,9.11,9.58,14.56,1.44,5.07,1.45,10.68.8,15.97-.48,3.92-1.66,8.16-4.47,11.18-2.37,2.54-5.56,4.61-8.85,5.8-3.33,1.21-6.81,2.37-10.44,2.68-2.89.25-6.06-.02-8.99-.23-.61-.04-1.96-.08-3.08-.27.03,4.42-.19,8.83-.95,13.16-.43,2.45-2.07,4.93-4.22,6.15-3.32,1.82-13.11.53-16.71-.54ZM575.63,116.98c1.94.12,6.27-1.94,7.67-3.42,1.05-1.11,2.01-2.44,2.27-4,.42-2.45-.97-5.57-3.14-7.22-2.13-1.61-5.55-1.72-7.14.46-1.36,1.87-1.95,4.25-2.36,6.52-.39,2.17-1,5.84-.47,6.68.28.45,2.05.91,3.17.98Z"/>
              <path class="cls-13" d="M618.28,156.35c-8.46-7.95-10.26-20.3-8.81-31.28,2.46-18.58,14.95-35.57,34.89-36.17,34-1.03,40.43,40.3,26.92,63.63-10.92,18.86-38.35,16.82-53.01,3.82ZM648.74,138.37c4.94-3.16,7.33-15.58,3.75-20.47-4.52-6.17-12.92-1.58-14.5,5.53-1.89,8.48,2.83,20,10.75,14.93Z"/>
              <path class="cls-13" d="M683.88,173.43c-1.46-.54-2.86-1.49-3.93-2.56-1.33-1.33-1.77-3.22-1.79-5.04-.22-5.8-.02-11.83.67-17.5.2-1.63.57-3.39.79-5.03.55-4.16.98-8.48,1.66-12.59,1.08-6.56,2.48-13.32,4.89-19.56,1.58-4.08,3.93-8.28,7.45-10.85,3.93-2.87,9.57-3.94,14.58-3.46,2.98.29,6.01,1.25,8.9,2.05,3.3.91,6.78,1.81,9.87,3.29,3.7,1.78,7.17,4.27,10.1,7.17,4.09,4.23,7.24,9.77,8.32,15.35,1,5.17.53,10.77-.58,15.98-.82,3.86-2.36,7.99-5.43,10.74-2.58,2.32-5.95,4.11-9.34,5.01-3.43.91-7.01,1.77-10.67,1.76-2.91,0-6.05-.55-8.97-1.02-.6-.1-1.95-.25-3.06-.54-.36,4.4-.95,8.78-2.09,13.03-.65,2.41-2.5,4.73-4.75,5.76-3.48,1.53-13.14-.61-16.64-1.99ZM711.92,135.01c1.92.29,6.43-1.39,7.96-2.74,1.15-1.01,2.22-2.25,2.62-3.79.63-2.4-.49-5.64-2.51-7.46-1.99-1.79-5.4-2.2-7.18-.16-1.52,1.74-2.32,4.06-2.92,6.29-.58,2.13-1.51,5.73-1.05,6.61.24.47,1.97,1.08,3.08,1.25Z"/>
            </g>
          </g>
        </g>
        <g>
          <path class="cls-10" d="M765.91,163.24c-.76,0-1.39-.6-1.42-1.36,0-.11-.47-10.94-5.6-21.98-6.78-14.61-18.12-22.68-33.69-23.99,0,0-2.07-.05-2.08-.05-.14,0-.27,0-.41-.02-.77-.06-1.35-.72-1.31-1.49.02-.48.28-.89.66-1.12.22-.18.48-.29.78-.31.11,0,.21-.01.31-.01.15,0,.3,0,.44.02l1.69.04c10.14-.05,18.35-3.25,24.36-9.51,11.97-12.45,11.41-33.08,11.4-33.29-.03-.78.58-1.43,1.36-1.46.02,0,.04,0,.06,0,.75,0,1.38.59,1.42,1.36,0,.11.53,10.77,5.54,21.72,6.63,14.48,17.6,22.63,32.6,24.21l2.26.07c.18,0,.37,0,.55.02l.77.02c.77.03,1.38.66,1.37,1.44,0,.51-.28.95-.69,1.2-.25.22-.58.35-.93.35-.03,0-3.29-.19-3.29-.19-14.84.46-25.19,7.73-30.75,21.61-4.23,10.55-3.99,21.16-3.98,21.26.02.78-.59,1.43-1.37,1.46-.02,0-.03,0-.05,0Z"/>
          <path class="cls-1" d="M762.46,70.13s1.87,43.36,39.47,47.29l2.33.07s-.02,0-.04,0c-.18,0-.36,0-.53.03.52.01,1.11.08,1.66.16l-3.27-.19c-37.41,1.1-36.17,44.31-36.17,44.33,0-.02-1.65-44.06-40.59-47.32l-2.11-.06c.3,0,.6-.03.9-.04-.2,0-.4-.03-.61-.05l1.74.04c38.77-.2,37.21-44.26,37.21-44.26M723.15,114.33c.13,0,.24,0,.36.02h-.55c.07-.02.13-.02.19-.02M722.82,114.44h.39s-.06.01-.09.01c-.1,0-.2,0-.31-.01M804.26,117.49c.17,0,.34,0,.52.02l-.52-.02M804.78,117.51l.78.02h-.02c-.26,0-.51-.01-.76-.02M765.91,161.82h0M762.46,67.3s-.08,0-.12,0c-1.56.06-2.77,1.37-2.72,2.93h0c0,.2.53,20.27-11.02,32.27-5.73,5.95-13.58,9-23.34,9.06l-1.6-.04c-.14-.01-.32-.02-.53-.02-.14,0-.28,0-.42.02-.57.05-1.08.26-1.5.58-.71.48-1.19,1.28-1.24,2.2-.08,1.54,1.08,2.85,2.62,2.97.18.01.35.02.52.02h.06s1.98.05,1.98.05c14.96,1.28,25.87,9.04,32.41,23.08,5.03,10.78,5.5,21.41,5.5,21.51.06,1.53,1.32,2.72,2.83,2.72.03,0,.06,0,.1,0,1.56-.05,2.78-1.35,2.74-2.91,0-.1-.23-10.49,3.91-20.77,5.34-13.24,15.22-20.19,29.39-20.65l3.15.18c.06,0,.11,0,.17,0,.71,0,1.36-.26,1.86-.7.69-.51,1.15-1.32,1.16-2.24.02-1.55-1.18-2.83-2.73-2.88l-.76-.02c-.19,0-.38-.02-.57-.02l-2.19-.07c-14.41-1.54-24.97-9.38-31.38-23.31-4.92-10.71-5.45-21.17-5.45-21.27-.07-1.52-1.32-2.71-2.83-2.71h0Z"/>
        </g>
        <g>
          <path class="cls-10" d="M117.71,159.19c-.76,0-1.39-.6-1.42-1.36,0-.11-.47-10.94-5.6-21.98-6.78-14.61-18.12-22.68-33.69-23.99,0,0-2.07-.05-2.08-.05-.14,0-.28,0-.42-.02-.77-.06-1.35-.72-1.31-1.49.02-.47.28-.88.65-1.12.22-.18.49-.29.79-.32.11,0,.21-.01.31-.01.16,0,.3,0,.45.02l1.68.04c10.14-.05,18.35-3.25,24.36-9.51,11.97-12.45,11.41-33.08,11.4-33.29-.03-.78.58-1.43,1.36-1.46.02,0,.04,0,.06,0,.75,0,1.38.59,1.42,1.36,0,.11.53,10.77,5.54,21.72,6.63,14.48,17.6,22.63,32.6,24.21l2.26.07c.17,0,.35,0,.53.02l.79.02c.77.02,1.38.66,1.37,1.44,0,.51-.28.95-.69,1.2-.25.22-.58.35-.93.35-.03,0-3.29-.19-3.29-.19-14.84.46-25.19,7.73-30.75,21.61-4.23,10.55-3.99,21.16-3.98,21.26.02.78-.59,1.43-1.37,1.46-.02,0-.03,0-.05,0Z"/>
          <path class="cls-1" d="M114.26,66.08s1.87,43.36,39.47,47.29l2.33.07s-.02,0-.03,0c-.18,0-.36,0-.53.03.52.01,1.11.08,1.66.16l-3.27-.19c-37.41,1.1-36.17,44.31-36.17,44.33,0-.02-1.65-44.06-40.59-47.32l-2.11-.06c.3,0,.59-.03.9-.04-.21,0-.4-.03-.61-.05l1.74.04c38.77-.2,37.21-44.26,37.21-44.26M74.95,110.28c.12,0,.24,0,.36.02h-.55c.07-.02.13-.02.19-.02M74.62,110.39h.39s-.06.01-.09.01c-.1,0-.2,0-.31-.01M156.05,113.44c.17,0,.35,0,.53.02l-.53-.02M156.58,113.46l.78.02h-.02c-.26,0-.51-.01-.75-.02M117.71,157.77h0M114.26,63.25s-.08,0-.12,0c-1.56.06-2.77,1.37-2.72,2.93h0c0,.2.53,20.27-11.02,32.27-5.73,5.95-13.58,9-23.34,9.06l-1.6-.04c-.19-.02-.36-.02-.52-.02-.14,0-.27,0-.42.02-.57.05-1.08.26-1.51.58-.71.48-1.19,1.28-1.24,2.2-.08,1.54,1.08,2.85,2.62,2.97.18.01.35.02.52.02h.06s1.98.05,1.98.05c14.96,1.28,25.87,9.04,32.41,23.08,5.03,10.78,5.5,21.41,5.5,21.51.06,1.53,1.32,2.72,2.83,2.72.03,0,.06,0,.1,0,1.56-.05,2.78-1.35,2.74-2.91,0-.1-.23-10.49,3.91-20.77,5.34-13.25,15.22-20.19,29.39-20.65l3.15.18c.06,0,.11,0,.17,0,.7,0,1.36-.26,1.86-.69.7-.51,1.15-1.32,1.17-2.24.02-1.55-1.19-2.83-2.73-2.88l-.75-.02c-.2,0-.39-.02-.58-.02l-2.19-.07c-14.41-1.54-24.97-9.38-31.38-23.31-4.92-10.71-5.45-21.17-5.45-21.27-.07-1.52-1.32-2.71-2.83-2.71h0Z"/>
        </g>
      </g>
    </g>
  </g>
</svg>