<?xml version="1.0" encoding="UTF-8"?>
<svg id="Layer_1" data-name="Layer 1" xmlns="http://www.w3.org/2000/svg" viewBox="0 0 397.23 397.23">
  <defs>
    <style>
      .cls-1 {
        stroke: #fff;
        stroke-miterlimit: 10;
        stroke-width: 5.67px;
      }

      .cls-1, .cls-2 {
        fill: #79452f;
      }

      .cls-3 {
        fill: #b4f5db;
      }

      .cls-4 {
        fill: #fff;
      }

      .cls-5 {
        fill: #90dfc7;
      }
    </style>
  </defs>
  <circle class="cls-1" cx="198.62" cy="198.62" r="195.78"/>
  <circle class="cls-3" cx="198.62" cy="198.62" r="183.08"/>
  <path class="cls-5" d="M313,67.89c26,30.55,41.7,70.14,41.7,113.4,0,96.69-78.38,175.07-175.07,175.07-43.26,0-82.85-15.7-113.4-41.7,32.11,37.73,79.94,61.68,133.38,61.68,96.69,0,175.07-78.38,175.07-175.07,0-53.43-23.94-101.26-61.68-133.38Z"/>
  <g>
    <path class="cls-2" d="M106.01,142.89c-18.1.4-32.34,20.28-31.81,44.39.53,24.12,15.64,43.34,33.74,42.94,18.1-.4,32.34-20.28,31.81-44.39-.53-24.12-15.64-43.34-33.74-42.94ZM90.23,178.79c-8.82,1.14-10.57-12.55-1.76-13.68,8.82-1.14,10.57,12.55,1.76,13.68Z"/>
    <path class="cls-2" d="M326.98,190.98c2.27-22.41-10.46-42.06-28.43-43.89-17.98-1.82-34.39,14.87-36.67,37.28-2.27,22.41,10.46,42.06,28.44,43.89,17.98,1.82,34.39-14.87,36.67-37.28ZM312.66,180.92c-8.77-1.34-6.68-14.94,2.07-13.61,8.77,1.34,6.68,14.94-2.07,13.61Z"/>
    <path class="cls-2" d="M180.75,234.9c1.01,9.06,7.27,15.62,15.87,18.25,8.01,2.45,17.25,1.19,23.72-4.28,4.03-3.4,5.92-8.29,6.52-13.4.31-2.71-2.54-5.04-5.04-5.04-2.98,0-4.72,2.32-5.04,5.04.12-1.02.03-.2-.07.3-.08.4-.18.8-.29,1.2-.11.37-.31.76-.37,1.13-.09.51.18-.39.2-.43-.1.19-.17.4-.28.59-.35.66-.76,1.27-1.14,1.91-.44.73.68-.71-.08.08-.29.29-.55.6-.85.89-.26.24-.56.46-.8.71.56-.6.54-.39-.08.04-.59.4-1.21.76-1.86,1.08-.65.32-.89.33-.07.06-.35.11-.68.26-1.03.38-.75.25-1.51.45-2.28.61-.2.04-1.46.29-.59.12.82-.15-.24.02-.44.04-.8.07-1.61.1-2.42.09-.76-.01-1.51-.12-2.26-.15.9.03.62.1-.11-.03-.37-.07-.74-.14-1.11-.23-.73-.17-1.46-.37-2.17-.61-.35-.12-.7-.28-1.05-.39-.52-.16.47.2.47.2-.23-.12-.48-.22-.72-.34-.66-.32-1.31-.68-1.93-1.08-.26-.17-.52-.35-.78-.52-.97-.65.63.6-.2-.17-.61-.56-1.18-1.13-1.74-1.74-.78-.85.46.75-.15-.2-.22-.35-.45-.68-.66-1.04-.2-.36-.35-.75-.57-1.1-.27-.45.2.48.2.48-.07-.25-.19-.5-.27-.75-.13-.41-.25-.82-.34-1.24-.04-.16-.06-.32-.1-.48-.31-1.09.12,1.17-.01.02-.3-2.7-2.1-5.04-5.04-5.04-2.49,0-5.34,2.32-5.04,5.04h0Z"/>
  </g>
  <circle class="cls-4" cx="74.18" cy="118.78" r="7.96"/>
  <circle class="cls-4" cx="180.72" cy="42.19" r="7.96"/>
  <ellipse class="cls-4" cx="123.15" cy="71.5" rx="46.09" ry="26.16" transform="translate(-18.62 84.91) rotate(-35.54)"/>
</svg>