<?xml version="1.0" encoding="UTF-8"?>
<svg id="Layer_1" data-name="Layer 1" xmlns="http://www.w3.org/2000/svg" viewBox="0 0 397.23 397.23">
  <defs>
    <style>
      .cls-1 {
        stroke: #fff;
        stroke-miterlimit: 10;
        stroke-width: 5.67px;
      }

      .cls-1, .cls-2 {
        fill: #79452f;
      }

      .cls-3 {
        fill: #fff;
      }

      .cls-4 {
        fill: #fec4da;
      }

      .cls-5 {
        fill: #fba0c2;
      }
    </style>
  </defs>
  <circle class="cls-1" cx="198.62" cy="198.62" r="195.78"/>
  <circle class="cls-4" cx="198.62" cy="198.62" r="183.08"/>
  <path class="cls-5" d="M313,67.89c26,30.55,41.7,70.14,41.7,113.4,0,96.69-78.38,175.07-175.07,175.07-43.26,0-82.85-15.7-113.4-41.7,32.11,37.73,79.94,61.68,133.38,61.68,96.69,0,175.07-78.38,175.07-175.07,0-53.43-23.94-101.26-61.68-133.38Z"/>
  <circle class="cls-3" cx="74.18" cy="118.78" r="7.96"/>
  <circle class="cls-3" cx="180.72" cy="42.19" r="7.96"/>
  <ellipse class="cls-3" cx="123.15" cy="71.5" rx="46.09" ry="26.16" transform="translate(-18.62 84.91) rotate(-35.54)"/>
  <g>
    <g>
      <path class="cls-2" d="M256.02,194.79c18.53-9.6,36.64-17.12,56.6-23.5,4.64-1.48,8.12-6.55,6.52-11.48-1.51-4.65-6.5-8.11-11.48-6.52-21.02,6.71-41.48,15.23-61.07,25.38-4.34,2.25-5.99,8.68-3.35,12.77,2.85,4.43,8.13,5.76,12.77,3.35h0Z"/>
      <path class="cls-2" d="M246.94,197.56c20.36,6.55,41.03,12.24,61.69,17.76,4.71,1.26,10.36-1.58,11.48-6.52,1.12-4.9-1.47-10.14-6.52-11.48-20.39-5.45-40.8-11.07-60.9-17.51-6.7-2.15-13.64,3.45-12.38,10.38.62,3.4,3.03,6.22,6.63,7.38h0Z"/>
    </g>
    <g>
      <path class="cls-2" d="M150.7,180.35c-19.59-10.15-40.05-18.66-61.07-25.38-4.65-1.49-10.4,1.74-11.48,6.52-1.16,5.1,1.54,9.89,6.52,11.48,19.96,6.38,38.07,13.89,56.6,23.5,4.33,2.25,10.34,1.26,12.77-3.35,2.26-4.29,1.28-10.37-3.35-12.77h0Z"/>
      <path class="cls-2" d="M145.4,181.24c-20.36,6.55-41.03,12.24-61.69,17.76-4.87,1.3-7.85,6.65-6.52,11.48,1.35,4.91,6.6,7.83,11.48,6.52,20.66-5.52,41.33-11.21,61.69-17.76,4.8-1.54,7.9-6.48,6.52-11.48-1.3-4.71-6.66-8.07-11.48-6.52h0Z"/>
    </g>
    <path class="cls-2" d="M192.63,237.54c2.64-6.7,12.37-15.42,19.42-9.22,7.57,6.65-2.2,17.1-7.13,21.65-5.34,4.94,2.51,12.58,7.92,7.92.27-.23,1.65-.86,1.76-1.06-.46.84-.85-.83-.9-.1-.01.17.88,1.18,1.03,1.48.35.72.64,1.56.87,2.4.9,3.3,1.03,7.04-.31,10.28-3.39,8.2-13.41,9.74-21.23,9.11-7.19-.58-7.15,10.63,0,11.2,13.83,1.12,29.82-5.14,32.83-20.18,1.27-6.33.51-13.8-2.98-19.36-1.72-2.73-4.27-5.04-7.5-5.72-4.33-.92-8.08,1.15-11.28,3.85-.11.09-.12.27-.01.37,2.52,2.52,5.04,5.04,7.56,7.56.1.1.25.1.35,0,5.67-5.27,11.17-11.66,12.43-19.55,1.12-7.03-1.04-14.29-6.72-18.81-13.99-11.16-31.41,1.21-36.91,15.19-1.11,2.82,1.22,6.15,3.91,6.89,3.18.87,5.78-1.09,6.89-3.91h0Z"/>
  </g>
</svg>