<?xml version="1.0" encoding="UTF-8"?>
<svg id="Layer_1" data-name="Layer 1" xmlns="http://www.w3.org/2000/svg" viewBox="0 0 397.23 397.23">
  <defs>
    <style>
      .cls-1 {
        fill: #95f9ea;
      }

      .cls-2 {
        fill: #95d6d8;
      }

      .cls-3 {
        fill: #fff;
      }

      .cls-4 {
        fill: #ecb5f4;
      }

      .cls-5 {
        fill: #79452f;
      }
    </style>
  </defs>
  <g>
    <g>
      <g>
        <rect class="cls-5" x="2.83" y="2.83" width="391.57" height="391.57" rx="124.97" ry="124.97"/>
        <path class="cls-3" d="M269.43,397.23H127.81C57.33,397.23,0,339.9,0,269.43V127.81C0,57.33,57.33,0,127.81,0h141.62C339.9,0,397.23,57.33,397.23,127.81v141.62c0,70.47-57.33,127.81-127.81,127.81ZM127.81,5.67C60.46,5.67,5.67,60.46,5.67,127.81v141.62c0,67.35,54.79,122.14,122.14,122.14h141.62c67.35,0,122.14-54.79,122.14-122.14V127.81c0-67.35-54.79-122.14-122.14-122.14H127.81Z"/>
      </g>
      <rect class="cls-1" x="17.51" y="17.51" width="362.22" height="362.22" rx="111.56" ry="111.56"/>
      <path class="cls-2" d="M257.5,357.79h-117.77c-65.73,0-119.01-53.87-119.01-120.33v17.63c0,66.46,53.28,120.33,119.01,120.33h117.77c65.73,0,119.01-53.87,119.01-120.33v-17.63c0,66.46-53.28,120.33-119.01,120.33Z"/>
    </g>
    <g>
      <circle class="cls-3" cx="51.78" cy="122.55" r="7.96"/>
      <circle class="cls-3" cx="158.32" cy="45.96" r="7.96"/>
      <ellipse class="cls-3" cx="100.75" cy="75.27" rx="46.09" ry="26.16" transform="translate(-24.98 72.59) rotate(-35.54)"/>
    </g>
  </g>
  <g>
    <path class="cls-5" d="M258.65,240.72c-23,23.02-55.25,30.18-86.22,20.71-4.76-1.46-14.3-7.65-17.36-7.59-3.86.08-16.23,18.49-25.57,4.23-3.25-4.96-8.29-44.99-6.92-51.09,1.36-6.05,7.24-9.74,13.19-10.11s30.1,2.71,36.75,3.91c7.79,1.4,15.25,7.64,13.46,16.1-.88,4.13-5.28,5.93-5.02,10.19,23.19,7.69,51.25-1.84,61.42-24.92,5.36-12.18,4.41-32.56,24.45-29.96,32.36,4.2,5.15,55.2-8.16,68.53ZM150.95,245.17c9.13,1.39,15.67,7.59,25.48,10.48,33.3,9.8,69.57-3.8,87.87-33.33,5.54-8.94,20.12-39.7,2.56-43.05-14.25-2.72-13.7,13.57-16.88,21.59-12.61,31.79-53.53,47.31-81.47,25.33.05-1.5,16.75-8.27,8.9-16.07-2.94-2.92-40.5-7.3-44.56-5.3-4.36,2.15-3.76,8.38-3.65,12.51.37,13.89,4.04,58.32,21.75,27.83Z"/>
    <path class="cls-5" d="M216.54,130.92c-23.91-9.24-52.42,1.77-62.65,25.47-5.86,13.58-2.99,33.02-26.88,27.57-25.05-5.71-4.05-48.78,5.9-61.04,20.04-24.69,54.53-36.13,85.48-28.6,6.38,1.55,19.49,9.3,22.53,9.57,2.99.27,20.8-22.23,28.2.23,2.31,7,6.07,32.65,6.25,40.22.11,4.86-2.66,12.08-7.22,14.13-5.55,2.5-42.94-1.34-49.36-3.99-10.75-4.45-9.09-16.12-2.24-23.57ZM227.22,129.15c2.33,3.41-16.56,12.12-7.17,18.74,1.67,1.18,36.3,5.99,40.2,5.91,8.36-.18,8.31-6.49,8.02-13.16-.31-7.17-2.45-24.86-4.03-31.64-4.95-21.25-17.78,3.5-20.32,3.95-36.01-24.53-87.32-16.88-110.74,20.93-5.62,9.07-20.42,42.08-2.61,44.78,14.19,2.16,13.95-16.62,17.97-25.84,12.99-29.79,51.23-39.98,78.67-23.67Z"/>
    <path class="cls-4" d="M150.95,245.17c-17.71,30.5-21.38-13.93-21.75-27.83-.11-4.14-.71-10.37,3.65-12.51,4.05-1.99,41.62,2.38,44.56,5.3,7.85,7.81-8.86,14.57-8.9,16.07,27.94,21.98,68.86,6.46,81.47-25.33,3.18-8.02,2.62-24.31,16.88-21.59,17.57,3.35,2.99,34.11-2.56,43.05-18.3,29.53-54.56,43.13-87.87,33.33-9.82-2.89-16.35-9.09-25.48-10.48Z"/>
    <path class="cls-4" d="M227.22,129.15c-27.44-16.31-65.67-6.11-78.67,23.67-4.02,9.23-3.78,28-17.97,25.84-17.81-2.7-3.01-35.71,2.61-44.78,23.42-37.81,74.72-45.46,110.74-20.93,2.54-.45,15.36-25.2,20.32-3.95,1.58,6.78,3.72,24.46,4.03,31.64.29,6.66.34,12.98-8.02,13.16-3.9.08-38.53-4.73-40.2-5.91-9.39-6.62,9.5-15.33,7.17-18.74Z"/>
  </g>
  <g>
    <path class="cls-5" d="M87.27,330.68c-.81-.16-1.62-.54-2.26-1.02-.81-.59-1.19-1.56-1.35-2.54-.59-3.07-.86-6.2-1.08-9.38v-2.75c-.11-2.32-.16-4.58-.16-6.85.05-3.61.21-7.28.92-10.84.49-2.32,1.29-4.75,2.86-6.42,1.73-1.89,4.42-2.91,6.96-3.13,1.51-.11,3.07.11,4.58.27,1.73.16,3.5.32,5.18.81,2,.59,3.94,1.56,5.66,2.8,2.43,1.83,4.53,4.42,5.61,7.28,1.03,2.64,1.29,5.61,1.29,8.52-.05,2.16-.38,4.48-1.67,6.25-1.08,1.51-2.59,2.8-4.26,3.61-.38.22-.75.38-1.13.59,1.29.97,2.75,1.73,4.21,2.32.86.32,1.78.49,2.43,1.08.43.32.65.92.7,1.46.11,2.21-1.56,6.36-3.4,7.6-1.51.97-4.8.21-6.36-.75-2.86-1.73-5.45-4.15-7.39-6.96-.16-.22-.32-.49-.49-.75.11,1.62.11,3.24-.05,4.85-.11,1.35-.86,2.75-1.94,3.5-1.67,1.13-6.9.86-8.84.43ZM98.32,307.71c1.02-.05,3.13-1.35,3.77-2.21.49-.65.92-1.4.97-2.26.11-1.35-.75-2.91-1.94-3.72-1.19-.75-2.91-.7-3.61.59-.65,1.08-.81,2.37-.92,3.61-.11,1.19-.05,2.43.05,3.61.54.22,1.08.38,1.67.38ZM110.08,298.16c-.86-1.62-2.1-3.07-3.45-4.31-1.67-1.51-3.77-2.75-5.99-3.13-1.08-.16-2.27-.27-3.29.11-.38.16-.49.65-.11.81.59.21,1.29.21,1.94.32.54.05,1.02.32,1.51.49,1.08.32,2.05.86,2.97,1.46,1.78,1.13,3.4,2.64,4.53,4.48.11.16.43.81.65.92.81.32,1.67-.38,1.24-1.13Z"/>
    <path class="cls-5" d="M129.44,331.11c-2-.05-4.04-.32-5.82-1.19-1.19-.54-2.32-1.46-3.07-2.48-1.08-1.46-1.56-3.18-2-4.91-1.29-4.53-1.4-9.38-1.24-14.13.11-3.02.11-6.04.54-9.01.43-2.86.75-5.82,1.89-8.52.54-1.19,1.24-2.37,2.26-3.07,4.31-3.07,10.35-1.29,15.37-.97,1.78.16,3.56.16,5.29.49,1.19.27,2.37.59,3.29,1.35.49.43.86.97,1.02,1.56.22.92.22,1.89.11,2.8-.11,1.29-.32,2.59-.92,3.78-.38.75-.97,1.4-1.73,1.83-1.46.86-3.29,1.02-5.02,1.02-1.4-.05-2.8-.16-4.21-.38-.92-.22-1.83-.22-2.7-.22-.16,0-.21.32-.27.43-.16.54-.27,1.03-.22,1.56,2.54.38,5.18-.11,7.6.65.86.27,1.67.86,2.1,1.62.54,1.13.49,2.48.49,3.72,0,1.08-.22,2.16-.59,3.13-.43,1.19-1.67,2.16-2.97,2.43-2.05.49-4.21.05-6.25-.16-.11-.05-.32-.05-.38,0-.43.75-.65,2.86-.43,3.67.27,1.13,1.94,1.08,3.07.92,1.94-.32,3.94-.76,5.88-1.13.65-.11,1.29-.22,1.94-.16.49.05.97.05,1.4.22.54.22,1.02.65,1.35,1.13.81,1.35,1.13,2.97,1.35,4.53.21,1.4.27,2.86-.27,4.15-.43,1.08-1.29,2.05-2.32,2.64-1.94,1.13-4.26,1.62-6.52,1.94-2.64.43-5.34.86-8.04.75ZM139.84,291.69c.54-.11,1.24-.05,1.67-.43.38-.38.27-.97-.22-1.08-.27-.11-1.67.05-2,.05-1.13-.05-2.26-.22-3.34-.49-1.56-.32-6.31-1.67-7.71-.97-.43.16-.65.7-.27.97.32.27.81.22,1.24.27,1.02.16,2.05.43,3.02.7,1.56.43,3.13.65,4.75.75.92.11,1.89.38,2.86.22Z"/>
    <path class="cls-5" d="M160.01,329.92c-1.83,0-3.61.11-5.45-.11-1.56-.16-3.18-.75-4.37-1.78-.92-.81-1.51-2-1.62-3.13-.22-1.51-.27-3.13.27-4.58.22-.7.75-1.35,1.35-1.89,1.13-.86,2.59-1.4,4.1-1.56,2.16-.27,4.42-.49,6.58-.32,5.34.32,4.8-2.75.86-2.75-2.97.11-6.15-.27-8.63-1.83-1.56-1.02-2.91-2.48-3.72-4.04-.97-1.89-1.4-4.04-1.35-6.09.11-3.45,1.03-7.33,3.78-9.71,5.45-4.58,18.6-4.1,23.29-2.43,2.7,1.02,3.34,3.29,3.34,5.72,0,2.59-1.08,5.55-4.21,6.2-1.46.27-5.5.05-6.9.11-4.58.22-3.61,2.75,0,2.91,1.62.05,4.8.32,6.25.92,7.06,2.91,6.85,12.67,3.99,18.23-.92,1.78-2.53,3.29-4.31,4.37-1.56.97-3.45,1.51-5.34,1.67-2.64.27-5.28.16-7.93.11ZM174.47,292.71c-.32-.7-.97-1.24-1.62-1.56-1.83-.97-4.1-1.13-6.2-.97-.32,0-1.62.27-1.89.38-.54.27-.97.86-.49,1.24.43.32,2.1.16,2.7.16,1.02,0,2.1,0,3.13.22.97.22,2.05.65,2.64,1.46.65.92,2.16.05,1.73-.92Z"/>
    <path class="cls-5" d="M188.76,329.98c-1.46-.65-2.48-1.89-2.86-3.5-.27-1.13-.32-2.26-.43-3.4-.27-3.4-.05-6.85.11-10.25.16-2.64.21-5.28.59-7.93-1.08-.05-2.21-.16-3.18-.59-.65-.32-1.29-.86-1.67-1.51-1.4-2.1-1.51-5.02-1.08-7.5.27-1.67.54-3.5,1.62-4.85.7-.75,1.67-1.24,2.64-1.62,5.77-2,12.24-1.56,18.33-1.19,1.73.11,3.45.11,5.12.65.81.27,1.62.7,2.05,1.4.65.92.92,2,1.08,3.02.27,1.94.05,3.94-.49,5.77-.32,1.24-.97,2.48-1.94,3.34-.54.49-1.29.75-2,.86-1.08.22-2.16.16-3.24.16-.16,0-.81,0-.92.05-.38.86-.32,1.89-.38,2.86-.27,6.09,1.08,12.19.86,18.28-.05.97-.11,1.94-.32,2.86-.27.92-.86,1.89-1.62,2.53-.65.54-1.51.92-2.32,1.13-3.18.92-6.96.86-9.98-.59ZM207.52,293.42c0-.22-.11-.38-.22-.54-.65-1.08-1.73-1.94-2.91-2.37-1.35-.54-2.8-.75-4.26-.81-1.24-.05-2.48-.05-3.61.32-.38.16-.54.65-.16.81.05.05.38.27.49.27,2.37.7,5.02.32,7.23,1.35.7.32,1.35.92,1.73,1.56.38.7,1.78.27,1.73-.59Z"/>
    <path class="cls-5" d="M233.08,331.43c-.59-.11-1.24-.27-1.83-.59-.54-.32-1.08-.81-1.35-1.4-.54-1.19-.49-2.59-.49-3.83v-3.29c-.59-.05-1.19-.11-1.56-.16-1.56-.16-3.13-.38-4.69-.43h-.11c-.05,1.08-.16,2.1-.22,3.18-.16,1.35-.32,2.75-1.08,3.88-.43.7-1.08,1.24-1.78,1.62-1.24.59-2.7.75-4.1.75-1.02-.05-2.05-.05-3.02-.38-1.02-.27-2.05-.92-2.64-1.78-.81-1.13-1.02-2.64-1.19-4.04-.22-2.86-.11-5.77.16-8.63.11-1.19.22-2.37.38-3.56.22-3.02.65-6.04,1.46-8.95.97-3.72,2.48-7.44,5.01-10.41,1.46-1.73,3.4-3.13,5.55-3.94,3.67-1.29,8.36-.75,11.59,1.4,1.51,1.03,2.86,2.43,3.94,3.94,1.73,2.54,3.13,5.45,3.77,8.47,1.73,7.66,3.45,15.96,1.46,23.51-.32,1.35-1.19,2.64-2.32,3.4-1.94,1.35-4.64,1.67-6.96,1.24ZM237.29,301.4c-.43-1.51-.97-2.97-1.83-4.26-.59-.81-1.24-1.56-1.94-2.26-.49-.49-2.7-1.89-3.29-2.16-.49-.16-2.54-.97-3.07-.97-.54-.05-1.02.05-1.56.11-.27.05-1.56.11-1.83.27-.54.22-.7.92-.16,1.19.38.22,2.32.16,2.75.22s2.26.7,2.7.92c.49.22,2.32,1.4,2.7,1.83.92.97,1.83,2,2.53,3.24.49.92.75,1.94,1.08,2.97.05.22.43.43.65.43.92.16,1.56-.59,1.29-1.51ZM228.93,311.86c-.05-.49-.11-.92-.16-1.35-.59-4.53-2.32-7.06-3.94-1.35-.22.86-.43,1.73-.59,2.59h1.78c.59,0,1.78,0,2.91.11Z"/>
    <path class="cls-5" d="M249.59,330.68c-.81-.16-1.62-.54-2.27-1.02-.81-.59-1.19-1.56-1.35-2.54-.59-3.07-.86-6.2-1.08-9.38v-2.75c-.11-2.32-.16-4.58-.16-6.85.05-3.61.22-7.28.92-10.84.49-2.32,1.29-4.75,2.86-6.42,1.73-1.89,4.42-2.91,6.96-3.13,1.51-.11,3.07.11,4.58.27,1.73.16,3.5.32,5.18.81,2,.59,3.94,1.56,5.66,2.8,2.43,1.83,4.53,4.42,5.61,7.28,1.02,2.64,1.29,5.61,1.29,8.52-.05,2.16-.38,4.48-1.67,6.25-1.08,1.51-2.59,2.8-4.26,3.61-.38.22-.75.38-1.13.59,1.29.97,2.75,1.73,4.21,2.32.86.32,1.78.49,2.43,1.08.43.32.65.92.7,1.46.11,2.21-1.56,6.36-3.4,7.6-1.51.97-4.8.21-6.36-.75-2.86-1.73-5.45-4.15-7.39-6.96-.16-.22-.32-.49-.49-.75.11,1.62.11,3.24-.05,4.85-.11,1.35-.86,2.75-1.94,3.5-1.67,1.13-6.9.86-8.84.43ZM260.64,307.71c1.03-.05,3.13-1.35,3.78-2.21.49-.65.92-1.4.97-2.26.11-1.35-.75-2.91-1.94-3.72-1.19-.75-2.91-.7-3.61.59-.65,1.08-.81,2.37-.92,3.61-.11,1.19-.05,2.43.05,3.61.54.22,1.08.38,1.67.38ZM272.4,298.16c-.86-1.62-2.1-3.07-3.45-4.31-1.67-1.51-3.77-2.75-5.99-3.13-1.08-.16-2.26-.27-3.29.11-.38.16-.49.65-.11.81.59.21,1.29.21,1.94.32.54.05,1.02.32,1.51.49,1.08.32,2.05.86,2.97,1.46,1.78,1.13,3.4,2.64,4.53,4.48.11.16.43.81.65.92.81.32,1.67-.38,1.24-1.13Z"/>
    <path class="cls-5" d="M287.39,329.98c-1.46-.65-2.48-1.89-2.86-3.5-.27-1.13-.32-2.26-.43-3.4-.27-3.4-.05-6.85.11-10.25.16-2.64.21-5.28.59-7.93-1.08-.05-2.21-.16-3.18-.59-.65-.32-1.29-.86-1.67-1.51-1.4-2.1-1.51-5.02-1.08-7.5.27-1.67.54-3.5,1.62-4.85.7-.75,1.67-1.24,2.64-1.62,5.77-2,12.24-1.56,18.33-1.19,1.73.11,3.45.11,5.12.65.81.27,1.62.7,2.05,1.4.65.92.92,2,1.08,3.02.27,1.94.05,3.94-.49,5.77-.32,1.24-.97,2.48-1.94,3.34-.54.49-1.29.75-2,.86-1.08.22-2.16.16-3.24.16-.16,0-.81,0-.92.05-.38.86-.32,1.89-.38,2.86-.27,6.09,1.08,12.19.86,18.28-.05.97-.11,1.94-.32,2.86-.27.92-.86,1.89-1.62,2.53-.65.54-1.51.92-2.32,1.13-3.18.92-6.96.86-9.98-.59ZM306.15,293.42c0-.22-.11-.38-.22-.54-.65-1.08-1.73-1.94-2.91-2.37-1.35-.54-2.8-.75-4.26-.81-1.24-.05-2.48-.05-3.61.32-.38.16-.54.65-.16.81.05.05.38.27.49.27,2.37.7,5.02.32,7.23,1.35.7.32,1.35.92,1.73,1.56.38.7,1.78.27,1.73-.59Z"/>
  </g>
</svg>