<?xml version="1.0" encoding="UTF-8"?>
<svg xmlns="http://www.w3.org/2000/svg" viewBox="0 0 397.23 397.23">
  <defs>
    <style>
      .cls-1 {
        fill: #fcec97;
      }

      .cls-2 {
        fill: #79452f;
        stroke: #fff;
        stroke-miterlimit: 10;
        stroke-width: 5.67px;
      }

      .cls-3 {
        fill: #fed27a;
      }

      .cls-4 {
        isolation: isolate;
      }

      .cls-5 {
        fill: #fff;
      }

      .cls-6, .cls-7 {
        fill: #5a3a1c;
      }

      .cls-7 {
        mix-blend-mode: multiply;
        opacity: .2;
      }

      .cls-8 {
        fill: #ff929d;
      }

      .cls-9 {
        fill: #ff5a72;
      }
    </style>
  </defs>
  <g class="cls-4">
    <g id="Layer_1" data-name="Layer 1">
      <g>
        <circle class="cls-2" cx="198.62" cy="198.62" r="195.78"/>
        <circle class="cls-1" cx="198.62" cy="198.62" r="183.08"/>
        <path class="cls-3" d="M313,67.89c26,30.55,41.7,70.14,41.7,113.4,0,96.69-78.38,175.07-175.07,175.07-43.26,0-82.85-15.7-113.4-41.7,32.11,37.73,79.94,61.68,133.38,61.68,96.69,0,175.07-78.38,175.07-175.07,0-53.43-23.94-101.26-61.68-133.38Z"/>
        <circle class="cls-5" cx="74.18" cy="118.78" r="7.96"/>
        <circle class="cls-5" cx="180.72" cy="42.19" r="7.96"/>
        <ellipse class="cls-5" cx="123.15" cy="71.5" rx="46.09" ry="26.16" transform="translate(-18.62 84.91) rotate(-35.54)"/>
        <g>
          <g>
            <path class="cls-8" d="M236.13,303.72c-3.12-20.18-1.51-94.69-43.28-71.42-1.37.77-2.56,1.74-3.65,2.83-2.49-.69-5.45.24-6.43,3.43-9.17,29.74-10.64,60.71-15.58,91.25-.81,5,2.81,8.99,7.97,7.97,2.59-.52,5.2-.87,7.81-1.13,5.67,2.92,12.3,2.45,18.07-.5,3.59.09,7.19.23,10.77.35,5.9.2,15.45,2.77,21.08-.37,10.74-5.98,4.66-23.27,3.25-32.41Z"/>
            <path class="cls-9" d="M232.22,298.92c-2.4-26.42-1.63-87.65-39.38-66.62-1.37.77-2.56,1.74-3.65,2.83-2.49-.69-5.45.24-6.43,3.43-6.1,19.77-8.79,40.1-11.36,60.47,20.15-9.34,40.38-7.84,60.82-.11Z"/>
            <path class="cls-5" d="M212.89,233.03c.87,0-.3-.14-.74-.22-1.05-.18-2.03-.29-3.07-.17-1.75.21-3.46.79-5.23,1.03-3.9.53-7.1,1.01-10.75-.94-4.53-2.42-10.92,1.27-6.71,4.94,7.95,6.94,27.94,5.59,31.14-2.26.69-1.69-2.68-2.37-4.63-2.38Z"/>
            <path class="cls-6" d="M183.17,237.51c1.9-1.97,5.67-2.37,8.24-2.77,4.4-.69,8.92-.83,13.37-.74,3.97.08,8.03.29,11.9,1.24,1.03.25,2.29.47,3.16,1.14-.26-.2-.57-1.04-.4-.32,2.52,10.28,3.74,21.07,5.56,31.49,2.85,16.36,5.68,32.73,8.26,49.14.83,5.32,1.73,10.64,2.28,16,.07.66.1,1.32.18,1.98.16,1.33-.29.71.12.51.2-.1,1.78-2.25,1.79-2.02,0-.12.75.03-.33,0-1.23-.04-2.49.05-3.72.04-22.43-.24-45.13-2.66-67.49.12,1.12,1.12,2.24,2.24,3.36,3.36,2.53-19.93,5.21-39.84,8.01-59.74,1.31-9.31,2.64-18.62,4.1-27.91.47-3,.95-6,1.51-8.98.17-.9.38-1.79.55-2.69.14-.73.68-1.39.08-.52,2.47-3.56-3.35-6.92-5.8-3.39-1.49,2.16-1.54,6.01-1.96,8.47-1.09,6.44-2.04,12.91-2.98,19.38-2.47,16.94-4.78,33.9-7.03,50.87-1.09,8.16-2.16,16.33-3.2,24.5-.21,1.66,1.72,3.56,3.36,3.36,21.94-2.73,44.27-.53,66.28-.14,3.95.07,10.03.9,10.1-4.61.05-4.79-1.12-9.81-1.83-14.53-2.62-17.45-5.66-34.83-8.68-52.21-1.35-7.75-2.71-15.5-4.08-23.25-.65-3.65-.94-7.64-1.99-11.2-2.05-6.91-14.65-6.61-20.22-6.77-5.48-.16-11.02.1-16.43,1.02-3.73.63-8.08,1.6-10.81,4.43-3,3.12,1.75,7.87,4.75,4.75Z"/>
          </g>
          <ellipse class="cls-5" cx="119.86" cy="187.97" rx="55.35" ry="48.9"/>
          <ellipse class="cls-5" cx="290.76" cy="189.05" rx="48.9" ry="55.35" transform="translate(49.87 438.54) rotate(-79.04)"/>
          <path class="cls-7" d="M116.31,150.35c13.92-1.67,28.94,1.03,41.07,8.19,6.16,3.63,11.47,8.33,16.75,13.09-5.07-22.38-27.44-39.25-54.26-39.25-30.57,0-55.35,21.9-55.35,48.9,0,1.64.1,3.25.28,4.85,10.81-18.78,29.78-33.17,51.52-35.78Z"/>
          <path class="cls-7" d="M261.75,156.77c21.48-5.61,43.76-1.87,60.98,12.42,10.37,8.61,18.09,20.27,21.7,33.06.23-.89.5-1.76.68-2.68,5.14-26.52-15.03-52.73-45.04-58.54-25.13-4.87-49.14,6.14-59.32,25.41,6.28-4.52,13.54-7.72,21.01-9.67Z"/>
          <circle class="cls-6" cx="122.12" cy="187.83" r="14.51" transform="translate(-88.75 263.53) rotate(-76.72)"/>
          <circle class="cls-6" cx="292.11" cy="192.54" r="14.51" transform="translate(-51.45 126.44) rotate(-22.5)"/>
          <path class="cls-6" d="M247.8,163.27c19.89-31.7,71.24-28.08,89.65,3.49,5.33,9.13,6.83,19.81,5,30.17-1.12,6.34,8.59,9.06,9.71,2.68,3.99-22.63-5.04-43.89-24.02-56.83-17.23-11.75-40.92-15.38-60.58-7.97-11.92,4.5-21.69,12.59-28.46,23.38-3.45,5.51,5.26,10.57,8.7,5.08h0Z"/>
          <path class="cls-6" d="M69.75,188.35c-.73-19.73,9.7-36.56,27.4-45.16,15.99-7.77,36.23-7.78,51.52,1.65,9.37,5.77,15.84,14.9,19.27,25.26,2.02,6.13,11.75,3.5,9.71-2.68-7.47-22.61-26.5-37.54-50.18-39.67-21.27-1.91-43.73,7.03-56.75,24.16-7.95,10.46-11.53,23.37-11.05,36.44.24,6.46,10.31,6.49,10.07,0h0Z"/>
          <path class="cls-6" d="M267.05,85.94c15.51-8.31,35.81-4.62,47.71,8.2,4.42,4.76,11.53-2.37,7.12-7.12-15.02-16.19-40.54-20.16-59.92-9.78-5.72,3.06-.63,11.76,5.08,8.7h0Z"/>
          <path class="cls-6" d="M160.47,80.77c-21.35-10.7-47.83-9.32-67.63,4.22-5.32,3.64-.29,12.37,5.08,8.7,16.77-11.46,39.21-13.37,57.47-4.22,5.78,2.9,10.89-5.79,5.08-8.7h0Z"/>
          <path class="cls-6" d="M102.74,263.21v57.47c0,4.32,6.72,4.33,6.72,0v-57.47c0-4.32-6.72-4.33-6.72,0h0Z"/>
          <path class="cls-6" d="M88.61,250.96v52.76c0,4.32,6.72,4.33,6.72,0v-52.76c0-4.32-6.72-4.33-6.72,0h0Z"/>
          <path class="cls-6" d="M75.42,257.56v15.08c0,1.76,1.54,3.44,3.36,3.36,1.82-.08,3.36-1.48,3.36-3.36v-15.08c0-1.76-1.54-3.44-3.36-3.36-1.82.08-3.36,1.48-3.36,3.36h0Z"/>
          <path class="cls-6" d="M114.05,260.38v33.92c0,4.32,6.72,4.33,6.72,0v-33.92c0-4.32-6.72-4.33-6.72,0h0Z"/>
          <path class="cls-6" d="M249.11,225.25c8.99,11.03,22.62,17.2,36.57,18.87,15.53,1.86,30-3.23,43.05-11.32,3.67-2.27.3-8.08-3.39-5.8-11.76,7.29-24.49,12.01-38.51,10.54-12.68-1.34-24.86-7.08-32.97-17.03-2.73-3.35-7.46,1.42-4.75,4.75h0Z"/>
          <path class="cls-6" d="M75.07,224.27c25.94,26.63,71.82,22.51,93.28-7.45,2.52-3.52-3.3-6.88-5.8-3.39-19,26.53-60.01,29.41-82.73,6.09-3.02-3.1-7.77,1.65-4.75,4.75h0Z"/>
          <path class="cls-6" d="M248.56,235.34c5.84,6.57,12.69,12.21,20.25,16.69,1.86,1.1,3.55-1.8,1.69-2.9-7.33-4.34-13.91-9.79-19.57-16.16-1.44-1.62-3.81.76-2.37,2.37h0Z"/>
          <path class="cls-6" d="M247.79,243.21c1.66,3.16,3.82,6.06,6.36,8.57.62.62,1.76.67,2.37,0,.61-.67.67-1.71,0-2.37-.6-.59-1.18-1.21-1.73-1.85-.27-.31-.53-.62-.79-.94-.06-.08-.12-.15-.18-.23,0,0-.26-.34-.14-.17.11.15-.07-.09-.09-.12-.07-.1-.14-.19-.22-.29-1-1.36-1.9-2.8-2.69-4.29-.41-.78-1.56-1.08-2.3-.6-.79.51-1.04,1.46-.6,2.3h0Z"/>
          <path class="cls-6" d="M165.34,228.93c-5.32,6.93-11.94,12.84-19.37,17.43-1.83,1.13-.15,4.04,1.69,2.9,7.95-4.91,14.88-11.23,20.57-18.64.55-.72.11-1.88-.6-2.3-.87-.51-1.74-.12-2.3.6h0Z"/>
          <path class="cls-6" d="M167.42,234.9c-2.2,3.12-4.4,6.24-6.61,9.36-.51.72-.15,1.9.6,2.3.86.46,1.75.17,2.3-.6,2.2-3.12,4.4-6.24,6.61-9.36.51-.72.15-1.9-.6-2.3-.86-.46-1.75-.17-2.3.6h0Z"/>
        </g>
      </g>
    </g>
  </g>
</svg>